#N canvas 720 23 720 415 10;
#X obj 363 6 cnv 15 176 90 empty empty empty 20 12 0 14 -233017 -66577
0;
#X obj 184 6 cnv 15 176 90 empty empty empty 20 12 0 14 -233017 -66577
0;
#X obj 5 6 cnv 15 176 90 empty empty empty 20 12 0 14 -233017 -66577
0;
#N canvas 0 22 450 300 (subpatch) 0;
#X array \$0-sound 64000 float 0;
#X coords 0 1 63999 -1 200 140 1;
#X restore 207 264 graph;
#X msg 7 78 load all_instruments;
#X obj 7 60 loadbang;
#X obj 421 359 dac~;
#X obj 421 302 vline~;
#X msg 421 283 1 \, 63998 4000;
#X obj 421 321 tabread4~ \$0-sound;
#N canvas 0 22 450 300 (subpatch) 0;
#X array \$0-z 256 float 2;
#X coords 0 5 256 -5 200 140 1;
#X restore 4 264 graph;
#X text 7 8 1 - load GANSynth model from a saved checkpoint, f 28
;
#X text 365 8 3 - synthesize from the vector and a given pitch, f
28;
#N canvas 760 492 450 300 print_input 0;
#X obj 139 24 inlet;
#X obj 147 97 outlet;
#X obj 201 65 print gansynth input;
#X connect 0 0 1 0;
#X connect 0 0 2 0;
#X restore 211 133 pd print_input;
#X obj 421 261 bng 20 250 50 0 empty empty play 22 10 0 10 -232576
-1 -1;
#X text 186 8 2 - generate a random latent vector for timbre, f 28
;
#X obj 257 196 print gansynth output;
#X obj 421 340 *~ 0.5;
#X obj 186 38 bng 20 250 50 0 empty empty empty 17 7 0 10 -232576 -1
-1;
#X obj 186 60 f \$0;
#X msg 186 78 randomize_z \$1-z;
#X obj 365 38 bng 20 250 50 0 empty empty empty 17 7 0 10 -232576 -1
-1;
#X obj 365 60 f \$0;
#X msg 365 78 synthesize \$1-z \$1-sound 52;
#N canvas 501 282 450 300 loaded 0;
#X obj 102 102 tgl 15 0 empty empty loaded 17 7 0 10 -262144 -1 -1
64000 1;
#X obj 103 68 f 1;
#X obj 101 43 route loaded unloaded;
#X obj 127 68 f 0;
#X obj 101 25 r \$0-gansynth_out;
#X connect 1 0 0 0;
#X connect 2 0 1 0;
#X connect 2 1 3 0;
#X connect 3 0 0 0;
#X connect 4 0 2 0;
#X coords 0 -1 1 1 60 20 2 100 100;
#X restore 109 46 pd loaded;
#X obj 229 174 list trim;
#X obj 421 232 route synthesized;
#X obj 149 196 s \$0-gansynth_out;
#X obj 421 214 r \$0-gansynth_out;
#X obj 128 153 pyext. sopimagenta.gansynth.pyext gansynth @detach 1
;
#X connect 4 0 13 0;
#X connect 5 0 4 0;
#X connect 7 0 9 0;
#X connect 8 0 7 0;
#X connect 9 0 17 0;
#X connect 13 0 29 1;
#X connect 14 0 8 0;
#X connect 17 0 6 0;
#X connect 17 0 6 1;
#X connect 18 0 19 0;
#X connect 19 0 20 0;
#X connect 20 0 13 0;
#X connect 21 0 22 0;
#X connect 22 0 23 0;
#X connect 23 0 13 0;
#X connect 25 0 16 0;
#X connect 25 0 27 0;
#X connect 26 0 14 0;
#X connect 28 0 26 0;
#X connect 29 0 25 0;
#X coords 0 415 1 414 0 0 0;
