#N canvas 125 25 1155 678 10;
#X obj 194 -39 cnv 15 830 200 empty empty empty 20 12 0 14 -233017
-66577 0;
#X obj 12 -39 cnv 15 176 90 empty empty empty 20 12 0 14 -233017 -66577
0;
#N canvas 0 22 450 300 (subpatch) 0;
#X array \$0-sound 224000 float 0;
#X coords 0 1 223999 -1 200 140 1 0 0;
#X restore 14 520 graph;
#X obj 240 641 dac~;
#X obj 241 571 vline~;
#X obj 240 594 tabread4~ \$0-sound;
#X text 15 -36 1 - load GANSynth model from a saved checkpoint, f
28;
#N canvas 760 492 450 300 print_input 0;
#X obj 139 24 inlet;
#X obj 147 97 outlet;
#X obj 201 65 print gansynth input;
#X connect 0 0 1 0;
#X connect 0 0 2 0;
#X restore 18 216 pd print_input;
#X obj 18 351 print gansynth output;
#X obj 240 616 *~ 0.5;
#N canvas 830 362 450 300 loaded 0;
#X obj 102 102 tgl 15 0 empty empty loaded 17 7 0 10 -4034 -1 -1 0
1;
#X obj 99 19 inlet;
#X obj 103 68 f 1;
#X obj 101 43 route loaded unloaded;
#X obj 127 68 f 0;
#X obj 183 118 unpack f f;
#X obj 288 146 s sample_rate;
#X obj 148 201 s sample_max_length;
#X obj 145 165 expr $f1 / $f2;
#X connect 1 0 3 0;
#X connect 2 0 0 0;
#X connect 3 0 2 0;
#X connect 3 0 5 0;
#X connect 3 1 4 0;
#X connect 4 0 0 0;
#X connect 5 0 8 0;
#X connect 5 1 6 0;
#X connect 5 1 8 1;
#X connect 8 0 7 0;
#X coords 0 -1 1 1 60 20 2 100 100;
#X restore 245 378 pd loaded;
#X obj 19 261 list trim;
#N canvas 830 401 450 300 parse_length 0;
#X obj 113 29 inlet;
#X obj 108 193 outlet;
#X obj 108 123 - 1;
#X obj 108 146 pack \$1 \$2;
#X obj 108 100 t f f;
#X msg 108 169 1 \, \$1 \$2;
#X obj 112 65 f;
#X obj 246 53 r sample_rate;
#X obj 173 119 expr $f1 / $f2 * 1000;
#X connect 0 0 6 0;
#X connect 2 0 3 0;
#X connect 3 0 5 0;
#X connect 4 0 2 0;
#X connect 4 1 8 0;
#X connect 5 0 1 0;
#X connect 6 0 4 0;
#X connect 7 0 8 1;
#X connect 8 0 3 1;
#X restore 240 547 pd parse_length;
#X obj 239 480 bng 30 250 50 0 empty empty Play 32 15 0 10 -4034 -1
-1;
#X msg 374 443 stop;
#X obj 139 315 route hallucinated;
#N canvas 468 108 812 595 sample_shape 0;
#X obj 159 313 weightedsum;
#X floatatom 104 261 5 0 0 0 - - -;
#X floatatom 168 261 5 0 0 0 - - -;
#X floatatom 239 261 5 0 0 0 - - -;
#X floatatom 309 261 5 0 0 0 - - -;
#X obj 104 120 vsl 15 128 0 1 0 0 empty empty StartTrim 0 -9 0 10 -262144
-1 -1 0 1;
#X obj 168 120 vsl 15 128 0 1 0 0 empty empty Attack 0 -9 0 10 -262144
-1 -1 6350 1;
#X obj 239 120 vsl 15 128 0 1 0 0 empty empty Sustain 0 -9 0 10 -262144
-1 -1 12700 1;
#X obj 309 120 vsl 15 128 0 1 0 0 empty empty Decay 0 -9 0 10 -262144
-1 -1 6350 1;
#X obj 172 390 *;
#X obj 200 390 *;
#X obj 231 391 *;
#X obj 261 390 *;
#X obj 340 407 print;
#X obj 311 344 r sample_max_length;
#X obj 232 342 bang;
#X obj 98 17 loadbang;
#X msg 99 58 0;
#X msg 160 61 0.5;
#X msg 230 63 1;
#X msg 310 64 0.5;
#X obj 137 465 s s_trim;
#X obj 209 465 s s_att;
#X obj 276 465 s s_sus;
#X obj 357 465 s s_dec;
#X connect 0 0 9 0;
#X connect 0 1 10 0;
#X connect 0 2 11 0;
#X connect 0 3 12 0;
#X connect 5 0 0 0;
#X connect 6 0 0 1;
#X connect 7 0 0 2;
#X connect 8 0 0 3;
#X connect 9 0 1 0;
#X connect 9 0 21 0;
#X connect 10 0 2 0;
#X connect 10 0 22 0;
#X connect 11 0 3 0;
#X connect 11 0 23 0;
#X connect 12 0 4 0;
#X connect 12 0 24 0;
#X connect 14 0 9 1;
#X connect 14 0 10 1;
#X connect 14 0 11 1;
#X connect 14 0 12 1;
#X connect 14 0 13 0;
#X connect 14 0 15 0;
#X connect 15 0 9 0;
#X connect 15 0 10 0;
#X connect 15 0 11 0;
#X connect 15 0 12 0;
#X connect 16 0 17 0;
#X connect 16 0 18 0;
#X connect 16 0 19 0;
#X connect 16 0 20 0;
#X connect 17 0 5 0;
#X connect 18 0 6 0;
#X connect 19 0 7 0;
#X connect 20 0 8 0;
#X coords 0 -1 1 1 250 180 2 100 100;
#X restore 763 -28 pd sample_shape;
#N canvas 584 181 696 522 hallucination_settings 0;
#X obj 57 118 vsl 15 128 1 20 0 0 empty empty NoteCount 0 -9 0 10 -262144
-1 -1 2674 1;
#X obj 120 118 vsl 15 128 0 20 0 0 empty empty InterpolationSteps 0
-9 0 10 -262144 -1 -1 3175 1;
#X obj 234 118 vsl 15 128 0 1 0 0 empty empty SampleSpacing 0 -9 0
10 -262144 -1 -1 5080 1;
#X floatatom 58 258 5 0 0 0 - - -;
#X floatatom 123 260 5 0 0 0 - - -;
#X floatatom 236 261 5 0 0 0 - - -;
#X obj 32 325 s note_count;
#X obj 150 330 s interp_steps;
#X obj 360 190 r sample_max_length;
#X obj 333 231 expr ($f2 + 1) * $f1 \;;
#X obj 106 289 int;
#X obj 24 285 int;
#X obj 57 10 loadbang;
#X msg 63 46 5;
#X msg 110 47 5;
#X msg 194 52 0.4;
#X obj 281 319 s sample_spacing;
#X connect 0 0 11 0;
#X connect 1 0 10 0;
#X connect 2 0 9 0;
#X connect 3 0 6 0;
#X connect 4 0 7 0;
#X connect 5 0 16 0;
#X connect 8 0 9 1;
#X connect 9 0 5 0;
#X connect 10 0 4 0;
#X connect 11 0 3 0;
#X connect 12 0 13 0;
#X connect 12 0 14 0;
#X connect 12 0 15 0;
#X connect 13 0 0 0;
#X connect 14 0 1 0;
#X connect 15 0 2 0;
#X coords 0 -1 1 1 270 180 2 50 100;
#X restore 484 -27 pd hallucination_settings;
#X obj 210 4 bng 30 250 50 0 empty empty Generate 35 15 0 10 -4034
-1 -1;
#X obj 210 80 f \$0;
#X msg 210 134 hallucinate \$1-sound \$2 \$3 \$4 \$5 \$6 \$7 \$8;
#N canvas 501 264 779 439 read_arguments 0;
#X obj 286 146 r s_trim;
#X obj 297 165 r s_att;
#X obj 310 185 r s_sus;
#X obj 326 205 r s_dec;
#X obj 236 85 r note_count;
#X obj 254 106 r interp_steps;
#X obj 272 126 r sample_spacing;
#X obj 209 284 pack f f f f f f f f;
#X obj 180 126 inlet;
#X obj 220 338 outlet;
#X connect 0 0 7 4;
#X connect 1 0 7 5;
#X connect 2 0 7 6;
#X connect 3 0 7 7;
#X connect 4 0 7 1;
#X connect 5 0 7 2;
#X connect 6 0 7 3;
#X connect 7 0 9 0;
#X connect 8 0 7 0;
#X restore 210 107 pd read_arguments;
#X text 198 -36 2 - Generate Hallucination;
#X obj 19 238 pyext. sopimagenta.gansynth.pyext gansynth @detach 1
;
#X msg 22 13 load pruu;
#X connect 4 0 5 0;
#X connect 5 0 9 0;
#X connect 7 0 23 1;
#X connect 9 0 3 0;
#X connect 9 0 3 1;
#X connect 11 0 8 0;
#X connect 11 0 15 0;
#X connect 12 0 4 0;
#X connect 13 0 12 0;
#X connect 14 0 4 0;
#X connect 15 0 12 0;
#X connect 15 1 10 0;
#X connect 18 0 19 0;
#X connect 19 0 21 0;
#X connect 20 0 7 0;
#X connect 20 0 14 0;
#X connect 21 0 20 0;
#X connect 23 0 11 0;
#X connect 24 0 7 0;
#X coords 0 678 1 677 0 0 0;
