#N canvas 320 181 854 545 10;
#X obj 4 5 cnv 15 400 130 empty empty empty 20 12 0 14 -233017 -66577
0;
#X obj 130 48 loadbang;
#N canvas 760 492 450 300 print_input 0;
#X obj 139 24 inlet;
#X obj 147 97 outlet;
#X obj 201 65 print melody_rnn input;
#X connect 0 0 1 0;
#X connect 0 0 2 0;
#X restore 570 140 pd print_input;
#X msg 130 68 load attention_rnn;
#X obj 492 209 print melody_rnn output;
#X obj 669 409 noteout 1;
#X obj 660 220 route note;
#X obj 669 387 unpack f f;
#X text 7 10 1 - load a Melody RNN model from disk, f 64;
#X obj 498 413 dac~;
#N canvas 196 536 450 300 select_output 0;
#X obj 215 28 inlet;
#X obj 204 252 outlet;
#X obj 252 252 outlet;
#X obj 103 118 hradio 15 1 0 2 empty empty empty 0 -8 0 10 -262144
-1 -1 0;
#X obj 203 172 list prepend;
#X msg 107 47 0;
#X obj 107 27 loadbang;
#X obj 203 193 route 0 1;
#X connect 0 0 4 0;
#X connect 3 0 4 1;
#X connect 4 0 7 0;
#X connect 5 0 3 0;
#X connect 6 0 5 0;
#X connect 7 0 1 0;
#X connect 7 1 2 0;
#X coords 0 -1 1 1 85 40 1 100 100;
#X restore 560 283 pd select_output;
#X text 672 367 external midi instrument;
#X obj 438 166 pyext. sopimagenta.melody_rnn.pyext melody_rnn @detach
1;
#X obj 156 104 s \$0-input;
#X obj 570 120 r \$0-input;
#X obj 4 138 cnv 15 400 200 empty empty empty 20 12 0 14 -233017 -66577
0;
#X obj 40 222 pack f f;
#X obj 40 202 notein 1;
#X msg 40 242 note \$1 \$2;
#X text 9 141 2 - send note input to melody_rnn, f 64;
#N canvas 618 463 449 464 keys 0;
#X floatatom 112 118 5 0 8 1 octave - -;
#X obj 58 45 loadbang;
#X msg 53 390 note \$1 \$2;
#X floatatom 112 137 5 0 127 1 velocity - -;
#X msg 29 68 100;
#X obj 53 368 pack f f;
#X obj 53 433 outlet;
#X obj 103 178 tgl 15 0 empty empty empty 17 7 0 10 -262144 -1 -1 0
1;
#X obj 248 13 keyname;
#X obj 120 178 tgl 15 0 empty empty empty 17 7 0 10 -262144 -1 -1 0
1;
#X obj 137 178 tgl 15 0 empty empty empty 17 7 0 10 -262144 -1 -1 0
1;
#X obj 154 178 tgl 15 0 empty empty empty 17 7 0 10 -262144 -1 -1 0
1;
#X obj 171 178 tgl 15 0 empty empty empty 17 7 0 10 -262144 -1 -1 0
1;
#X obj 188 178 tgl 15 0 empty empty empty 17 7 0 10 -262144 -1 -1 0
1;
#X obj 205 178 tgl 15 0 empty empty empty 17 7 0 10 -262144 -1 -1 0
1;
#X obj 222 178 tgl 15 0 empty empty empty 17 7 0 10 -262144 -1 -1 0
1;
#X obj 111 161 tgl 15 0 empty empty empty 17 7 0 10 -162280 -1 -1 0
1;
#X obj 128 161 tgl 15 0 empty empty empty 17 7 0 10 -162280 -1 -1 0
1;
#X obj 162 161 tgl 15 0 empty empty empty 17 7 0 10 -162280 -1 -1 0
1;
#X obj 179 161 tgl 15 0 empty empty empty 17 7 0 10 -162280 -1 -1 0
1;
#X obj 196 161 tgl 15 0 empty empty empty 17 7 0 10 -162280 -1 -1 0
1;
#X msg 248 53 \$2 \$1;
#X obj 248 33 pack f s;
#X obj 248 74 route a w s e d f t g y h u j k;
#X msg 111 215 1 \$1;
#X msg 144 215 3 \$1;
#X msg 215 215 6 \$1;
#X msg 249 215 8 \$1;
#X msg 283 215 10 \$1;
#X msg 97 237 0 \$1;
#X msg 131 237 2 \$1;
#X msg 165 237 4 \$1;
#X msg 199 237 5 \$1;
#X msg 233 237 7 \$1;
#X msg 267 237 9 \$1;
#X msg 341 237 12 \$1;
#X msg 301 237 11 \$1;
#X obj 20 324 expr $f1+12*$f2;
#X obj 34 287 unpack f f;
#X obj 116 324 *;
#X obj 53 412 spigot;
#X obj 199 119 tgl 15 0 empty empty on 17 7 0 10 -262144 -1 -1 1 1
;
#X msg 88 68 0;
#X msg 58 68 4;
#X connect 0 0 37 1;
#X connect 1 0 43 0;
#X connect 1 0 4 0;
#X connect 1 0 42 0;
#X connect 2 0 40 0;
#X connect 3 0 39 1;
#X connect 4 0 3 0;
#X connect 5 0 2 0;
#X connect 7 0 29 0;
#X connect 8 0 22 0;
#X connect 8 1 22 1;
#X connect 9 0 30 0;
#X connect 10 0 31 0;
#X connect 11 0 32 0;
#X connect 12 0 33 0;
#X connect 13 0 34 0;
#X connect 14 0 36 0;
#X connect 15 0 35 0;
#X connect 16 0 24 0;
#X connect 17 0 25 0;
#X connect 18 0 26 0;
#X connect 19 0 27 0;
#X connect 20 0 28 0;
#X connect 21 0 23 0;
#X connect 22 0 21 0;
#X connect 23 0 7 0;
#X connect 23 1 16 0;
#X connect 23 2 9 0;
#X connect 23 3 17 0;
#X connect 23 4 10 0;
#X connect 23 5 11 0;
#X connect 23 6 18 0;
#X connect 23 7 12 0;
#X connect 23 8 19 0;
#X connect 23 9 13 0;
#X connect 23 10 20 0;
#X connect 23 11 14 0;
#X connect 23 12 15 0;
#X connect 24 0 38 0;
#X connect 25 0 38 0;
#X connect 26 0 38 0;
#X connect 27 0 38 0;
#X connect 28 0 38 0;
#X connect 29 0 38 0;
#X connect 30 0 38 0;
#X connect 31 0 38 0;
#X connect 32 0 38 0;
#X connect 33 0 38 0;
#X connect 34 0 38 0;
#X connect 35 0 38 0;
#X connect 36 0 38 0;
#X connect 37 0 5 0;
#X connect 38 0 37 0;
#X connect 38 1 39 0;
#X connect 39 0 5 1;
#X connect 40 0 6 0;
#X connect 41 0 40 1;
#X connect 42 0 41 0;
#X connect 43 0 0 0;
#X coords 0 -1 1 1 140 96 1 100 100;
#X restore 208 203 pd keys;
#X text 19 178 use a midi device;
#X obj 162 312 s \$0-input;
#X obj 4 341 cnv 15 400 200 empty empty empty 20 12 0 14 -233017 -66577
0;
#X msg 84 430 generate 20;
#X text 8 342 3 - control melody_rnn, f 65;
#X msg 260 432 clear;
#X text 254 398 clear the note memory, f 12;
#X obj 160 500 s \$0-input;
#X obj 660 200 list trim;
#X text 188 170 or this virtual keyboard (play with A \, W \, S \,
E \, D \, F \, T \, G \, Y \, H \, U \, J \, K), f 34;
#X text 667 293 select midi output;
#X text 507 367 sine wave example;
#N canvas 215 630 348 254 sine 0;
#X obj 142 31 inlet;
#X obj 112 124 osc~;
#X obj 112 104 mtof;
#X obj 129 82 unpack f f;
#X obj 93 147 expr~ $v1*($f2/127)*0.5;
#X obj 141 199 outlet~;
#X connect 0 0 3 0;
#X connect 1 0 4 0;
#X connect 2 0 1 0;
#X connect 3 0 2 0;
#X connect 3 1 4 1;
#X connect 4 0 5 0;
#X restore 498 386 pd sine;
#X text 74 397 generate 20 secs of new notes, f 18;
#X connect 1 0 3 0;
#X connect 2 0 12 1;
#X connect 2 0 6 0;
#X connect 3 0 13 0;
#X connect 6 0 10 0;
#X connect 7 0 5 0;
#X connect 7 1 5 1;
#X connect 10 0 33 0;
#X connect 10 1 7 0;
#X connect 12 0 4 0;
#X connect 12 0 29 0;
#X connect 14 0 2 0;
#X connect 16 0 18 0;
#X connect 17 0 16 0;
#X connect 17 1 16 1;
#X connect 18 0 22 0;
#X connect 20 0 22 0;
#X connect 24 0 28 0;
#X connect 26 0 28 0;
#X connect 29 0 6 0;
#X connect 33 0 9 0;
#X connect 33 0 9 1;
#X coords 0 545 1 544 0 0 0;
