#N canvas 720 23 720 551 10;
#X obj 2 2 cnv 15 176 130 empty empty empty 20 12 0 14 -233017 -66577
0;
#X obj 28 65 loadbang;
#N canvas 760 492 450 300 print_input 0;
#X obj 139 24 inlet;
#X obj 147 97 outlet;
#X obj 201 65 print melody_rnn input;
#X connect 0 0 1 0;
#X connect 0 0 2 0;
#X restore 199 174 pd print_input;
#X msg 28 84 load attention_rnn;
#X obj 135 257 print melody_rnn output;
#X msg 75 150 state;
#X obj 414 401 noteout 1;
#X obj 212 222 route list;
#X obj 315 255 route note;
#X obj 414 379 unpack f f;
#X obj 181 2 cnv 15 176 130 empty empty empty 20 12 0 14 -233017 -66577
0;
#X obj 227 61 pack f f;
#X obj 227 43 notein 1;
#X msg 227 79 note \$1 \$2;
#X obj 360 2 cnv 15 176 130 empty empty empty 20 12 0 14 -233017 -66577
0;
#X msg 408 32 generate 20;
#X msg 424 106 clear;
#X text 4 4 1 - load a Melody RNN model from disk, f 28;
#X text 362 4 3 - generate 20 seconds of new notes, f 28;
#X text 362 64 melody_rnn remembers all previous note input \, but
can be cleared, f 28;
#X obj 236 104 s \$0-input;
#X text 183 4 2 - send note input to melody_rnn, f 28;
#X obj 360 146 cnv 15 176 100 empty empty empty 20 12 0 14 -233017
-66577 0;
#X obj 412 212 spigot;
#X obj 455 190 tgl 15 0 empty empty passthru 17 7 0 10 -262144 -1 -1
0 1;
#X obj 384 190 r \$0-input;
#X text 362 148 pass thru input notes to the output, f 28;
#X obj 207 426 osc~;
#X obj 207 406 mtof;
#X obj 224 384 unpack f f;
#X obj 188 449 expr~ $v1*($f2/127)*0.5;
#X obj 175 471 dac~;
#N canvas 196 536 450 300 select_output 0;
#X obj 215 28 inlet;
#X obj 204 252 outlet;
#X obj 252 252 outlet;
#X obj 103 118 hradio 15 1 0 2 empty empty empty 0 -8 0 10 -262144
-1 -1 0;
#X obj 203 172 list prepend;
#X msg 107 47 0;
#X obj 107 27 loadbang;
#X obj 203 193 route 0 1;
#X connect 0 0 4 0;
#X connect 3 0 4 1;
#X connect 4 0 7 0;
#X connect 5 0 3 0;
#X connect 6 0 5 0;
#X connect 7 0 1 0;
#X connect 7 1 2 0;
#X coords 0 -1 1 1 85 40 1 100 100;
#X restore 315 303 pd select_output;
#X text 300 400 sine example;
#X text 486 399 external midi instrument;
#X obj 14 200 pyext. sopimagenta.melody_rnn.pyext melody_rnn @detach
1;
#X connect 1 0 3 0;
#X connect 2 0 35 1;
#X connect 3 0 2 0;
#X connect 5 0 2 0;
#X connect 7 0 8 0;
#X connect 8 0 32 0;
#X connect 9 0 6 0;
#X connect 9 1 6 1;
#X connect 11 0 13 0;
#X connect 12 0 11 0;
#X connect 12 1 11 1;
#X connect 13 0 2 0;
#X connect 13 0 20 0;
#X connect 15 0 2 0;
#X connect 16 0 2 0;
#X connect 23 0 8 0;
#X connect 24 0 23 1;
#X connect 25 0 23 0;
#X connect 27 0 30 0;
#X connect 28 0 27 0;
#X connect 29 0 28 0;
#X connect 29 1 30 1;
#X connect 30 0 31 0;
#X connect 30 0 31 1;
#X connect 32 0 29 0;
#X connect 32 1 9 0;
#X connect 35 0 4 0;
#X connect 35 0 7 0;
#X coords 0 551 1 550 0 0 0;
