#N canvas 37 590 450 300 12;
#X obj 135 18 inlet~;
#X obj 188 141 clip~;
#X obj 180 236 outlet~;
#X obj 168 48 hip~ \$1;
#X obj 224 85 expr \$2-1 \; 1-\$2;
#X obj 342 87 print;
#X obj 340 47 f \$2;
#X obj 319 10 inlet;
#X obj 349 165 print \$1;
#X obj 233 19 loadbang;
#X obj 143 168 expr~ $v1+$v2*\$3;
#X connect 0 0 3 0;
#X connect 0 0 10 0;
#X connect 1 0 10 1;
#X connect 3 0 1 0;
#X connect 4 0 1 1;
#X connect 4 1 1 2;
#X connect 6 0 5 0;
#X connect 7 0 8 0;
#X connect 7 0 4 0;
#X connect 9 0 4 0;
#X connect 10 0 2 0;
