#N canvas 501 23 779 979 12;
#N canvas 357 244 450 278 (subpatch) 0;
#X array \$0-audio 3.888e+07 float 0;
#X coords 0 1 3.888e+07 -1 200 140 1;
#X restore 551 334 graph;
#X obj 98 122 pyext nsynth loader @detach 1;
#X obj 414 188 f \$0;
#X msg 414 209 load vati_oveba_sus_befebo.bin vati_oveba_sus_befebo_settings.json
\$1-audio;
#X obj 414 171 bng 15 250 50 0 empty empty empty 17 7 0 10 -262144
-1 -1;
#X obj 74 446 pyext nsynth controller @detach 1;
#X obj 142 147 print loader;
#X obj 114 495 route list;
#X obj 114 516 route play;
#X obj 463 373 print;
#X obj 444 328 stripnote;
#X obj 444 307 notein 1;
#X msg 444 349 note_on \$1;
#X msg 75 412 position_rel \$1 \$2;
#X obj 412 25 f \$0;
#X obj 412 8 bng 15 250 50 0 empty empty empty 17 7 0 10 -262144 -1
-1;
#X msg 412 46 load joxe_ticysy_uke_tesa.bin joxe_ticysy_uke_tesa_settings.json
\$1-audio;
#X obj 412 104 f \$0;
#X obj 412 87 bng 15 250 50 0 empty empty empty 17 7 0 10 -262144 -1
-1;
#X msg 412 125 load bird1_bird2_bird4_bird3.bin bird1_bird2_bird4_bird3_settings.json
\$1-audio;
#X obj 74 281 grid grid2 100 0 1 100 0 1 0 0.01 0.01 10 10 74 381;
#X obj 117 389 pack;
#X obj 440 375 bng 15 250 50 0 empty empty empty 17 7 0 10 -262144
-1 -1;
#X obj 121 200 unpackOSC;
#X obj 15 56 f \$0;
#X obj 15 39 bng 15 250 50 0 empty empty empty 17 7 0 10 -262144 -1
-1;
#X obj 19 179 route loaded;
#X obj 19 200 bng 15 250 50 0 empty empty empty 17 7 0 10 -262144 -1
-1;
#X obj 217 904 +~;
#X obj 121 179 udpreceive 12001;
#X msg 19 217 values 0 0;
#X obj 15 16 loadbang;
#X msg 15 77 load glass_string_whistle_wood.bin glass_string_whistle_wood_settings.json
\$1-audio;
#X obj 9 638 nsynthosc \$0-audio;
#X msg 231 407 set_pitch \$1;
#X obj 164 558 f 0;
#X obj 164 541 bng 15 250 50 0 empty empty empty 17 7 0 10 -262144
-1 -1;
#X floatatom 164 579 5 0 0 0 - - -;
#X obj 54 543 unpack f f f f;
#X obj 53 577 pack f f f f f;
#X obj 141 638 nsynthosc \$0-audio;
#X obj 75 667 nsynthosc \$0-audio;
#X obj 207 667 nsynthosc \$0-audio;
#X text 271 827 gain;
#X text 288 860 reverb amount;
#X obj 137 722 hip~ 200;
#X obj 192 558 expr ($f1+1)%4;
#X msg 247 369 position \$1 \$2;
#X obj 349 295 list trim;
#X obj 349 271 list prepend set_notes;
#X obj 229 860 *~ 0.3;
#X obj 407 927 vbap6, f 10;
#X obj 65 608 route 0 1 2 3;
#X obj 432 541 unpack s f f;
#X msg 432 520 position \$1 \$2;
#X obj 121 221 route /gridpos /pitch /notes /pos;
#X obj 386 564 expr $f1*2-1;
#X obj 477 564 expr 1-$f1*2;
#X obj 338 586 expr atan2($f1 \, $f2)/3.141592653589793*180 \; (1-min(1
\, sqrt($f1*$f1+$f2*$f2)))*100;
#X obj 136 696 *~ 1;
#X obj 161 773 clip~ -0.3 0.3;
#X obj 160 748 hip~ 4000;
#X obj 64 799 expr~ $v1+$v2*2.0;
#X obj 218 828 *~ 0.8;
#X obj 386 954 dac~ 1 2 3 4 5 6;
#X msg 3 247 \; pd dsp 1;
#X obj 229 881 rev2~ 100 92 10;
#X obj 224 293 expr 8-$f1 \; 8-$f2;
#X obj 215 269 unpack f f;
#X obj 241 334 pack f f;
#X msg 371 422 set_notes 60 63 67;
#X connect 1 0 6 0;
#X connect 1 0 5 1;
#X connect 1 0 26 0;
#X connect 2 0 3 0;
#X connect 3 0 1 1;
#X connect 4 0 2 0;
#X connect 5 0 7 0;
#X connect 7 0 8 0;
#X connect 8 0 38 0;
#X connect 8 0 36 0;
#X connect 10 0 12 0;
#X connect 11 0 10 0;
#X connect 11 1 10 1;
#X connect 12 0 5 1;
#X connect 12 0 9 0;
#X connect 12 0 22 0;
#X connect 13 0 5 1;
#X connect 14 0 16 0;
#X connect 15 0 14 0;
#X connect 16 0 1 1;
#X connect 17 0 19 0;
#X connect 18 0 17 0;
#X connect 19 0 1 1;
#X connect 20 0 21 1;
#X connect 20 1 21 0;
#X connect 21 0 13 0;
#X connect 23 0 55 0;
#X connect 24 0 32 0;
#X connect 25 0 24 0;
#X connect 26 0 27 0;
#X connect 27 0 30 0;
#X connect 27 0 65 0;
#X connect 28 0 51 0;
#X connect 29 0 23 0;
#X connect 30 0 20 0;
#X connect 31 0 25 0;
#X connect 32 0 1 1;
#X connect 33 0 59 0;
#X connect 34 0 5 1;
#X connect 35 0 37 0;
#X connect 35 0 46 0;
#X connect 36 0 35 0;
#X connect 37 0 39 0;
#X connect 38 0 39 1;
#X connect 38 1 39 2;
#X connect 38 2 39 3;
#X connect 38 3 39 4;
#X connect 39 0 52 0;
#X connect 40 0 59 0;
#X connect 41 0 59 0;
#X connect 42 0 59 0;
#X connect 45 0 61 0;
#X connect 45 0 62 0;
#X connect 46 0 35 1;
#X connect 47 0 5 1;
#X connect 48 0 5 1;
#X connect 49 0 48 0;
#X connect 50 0 66 0;
#X connect 51 0 64 0;
#X connect 51 1 64 1;
#X connect 51 2 64 2;
#X connect 51 3 64 3;
#X connect 51 4 64 4;
#X connect 51 5 64 5;
#X connect 52 0 33 0;
#X connect 52 1 40 0;
#X connect 52 2 41 0;
#X connect 52 3 42 0;
#X connect 53 1 56 0;
#X connect 53 2 57 0;
#X connect 54 0 53 0;
#X connect 55 0 68 0;
#X connect 55 1 34 0;
#X connect 55 2 49 0;
#X connect 55 3 54 0;
#X connect 56 0 58 0;
#X connect 57 0 58 1;
#X connect 58 0 51 1;
#X connect 58 1 51 3;
#X connect 59 0 45 0;
#X connect 60 0 62 1;
#X connect 61 0 60 0;
#X connect 62 0 63 0;
#X connect 63 0 28 0;
#X connect 63 0 50 0;
#X connect 66 0 28 1;
#X connect 67 0 69 0;
#X connect 67 1 69 1;
#X connect 68 0 67 0;
#X connect 68 1 67 1;
#X connect 69 0 47 0;
#X connect 70 0 5 1;
