#N canvas 661 23 684 823 12;
#X obj 304 470 route list;
#X obj 304 491 route play;
#X obj 552 176 print;
#X obj 533 131 stripnote;
#X obj 533 110 notein 1;
#X msg 533 152 note_on \$1;
#X obj 529 178 bng 15 250 50 0 empty empty empty 17 7 0 10 -262144
-1 -1;
#X obj 35 64 f \$0;
#X obj 35 47 bng 15 250 50 0 empty empty empty 17 7 0 10 -262144 -1
-1;
#X obj 35 24 loadbang;
#X msg 35 85 load glass_string_whistle_wood.bin glass_string_whistle_wood_settings.json
\$1-audio;
#X obj 195 637 nsynthosc \$0-audio;
#X obj 350 557 f 0;
#X obj 350 540 bng 15 250 50 0 empty empty empty 17 7 0 10 -262144
-1 -1;
#X floatatom 350 578 5 0 0 0 - - -;
#X obj 240 542 unpack f f f f;
#X obj 239 576 pack f f f f f;
#X obj 327 637 nsynthosc \$0-audio;
#X obj 261 666 nsynthosc \$0-audio;
#X obj 393 666 nsynthosc \$0-audio;
#X obj 378 557 expr ($f1+1)%4;
#X obj 251 607 route 0 1 2 3;
#X obj 318 772 dac~;
#N canvas 251 54 857 728 nsynthui 0;
#X obj 18 42 inlet;
#X obj 253 42 inlet;
#X obj 18 100 pyext nsynth loader @detach 1;
#X obj 254 544 pyext nsynth controller @detach 1;
#X obj 62 125 print loader;
#X msg 101 495 position_rel \$1 \$2;
#X obj 30 251 grid grid2 200 0 1 200 0 1 0 0.01 0.01 10 10 234 319
;
#X obj 101 474 pack;
#X obj 18 169 route loaded;
#X obj 18 190 bng 15 250 50 0 empty empty empty 17 7 0 10 -262144 -1
-1;
#X msg 18 207 values 0 0;
#X obj 254 575 outlet;
#N canvas 357 244 450 278 (subpatch) 0;
#X array \$0-audio 3.888e+07 float 0;
#X coords 0 1 3.888e+07 -1 200 140 1;
#X restore 247 286 graph;
#X connect 0 0 2 1;
#X connect 1 0 3 1;
#X connect 2 0 4 0;
#X connect 2 0 3 1;
#X connect 2 0 8 0;
#X connect 3 0 11 0;
#X connect 5 0 3 1;
#X connect 6 0 7 1;
#X connect 6 1 7 0;
#X connect 7 0 5 0;
#X connect 8 0 9 0;
#X connect 9 0 10 0;
#X connect 10 0 6 0;
#X coords -1 -1 1 1 440 220 2 20 240;
#X restore 121 208 pd nsynthui;
#X obj 316 727 *~ 0.8;
#X text 355 608 4-voice polyphony;
#X text 120 64 load sounds in the NSynth format...;
#X text 130 177 ...then play MIDI notes and move the X/Y pad position!
;
#X connect 0 0 1 0;
#X connect 1 0 15 0;
#X connect 1 0 13 0;
#X connect 3 0 5 0;
#X connect 4 0 3 0;
#X connect 4 1 3 1;
#X connect 5 0 2 0;
#X connect 5 0 6 0;
#X connect 5 0 23 1;
#X connect 7 0 10 0;
#X connect 8 0 7 0;
#X connect 9 0 8 0;
#X connect 10 0 23 0;
#X connect 11 0 24 0;
#X connect 12 0 14 0;
#X connect 12 0 20 0;
#X connect 13 0 12 0;
#X connect 14 0 16 0;
#X connect 15 0 16 1;
#X connect 15 1 16 2;
#X connect 15 2 16 3;
#X connect 15 3 16 4;
#X connect 16 0 21 0;
#X connect 17 0 24 0;
#X connect 18 0 24 0;
#X connect 19 0 24 0;
#X connect 20 0 12 1;
#X connect 21 0 11 0;
#X connect 21 1 17 0;
#X connect 21 2 18 0;
#X connect 21 3 19 0;
#X connect 23 0 0 0;
#X connect 24 0 22 0;
#X connect 24 0 22 1;
