#N canvas 159 105 1232 734 10;
#X obj 618 67 route list;
#X obj 618 88 route play;
#X obj 526 220 nsynthosc \$0-audio;
#X obj 664 134 f 0;
#X obj 664 117 bng 15 250 50 0 empty empty empty 17 7 0 10 -262144
-1 -1;
#X floatatom 664 155 5 0 0 0 - - -;
#X obj 554 119 unpack f f f f;
#X obj 553 153 pack f f f f f;
#X obj 642 222 nsynthosc \$0-audio;
#X obj 575 243 nsynthosc \$0-audio;
#X obj 694 243 nsynthosc \$0-audio;
#X obj 692 134 expr ($f1+1)%4;
#X obj 565 184 route 0 1 2 3;
#X obj 626 314 dac~;
#X obj 626 285 *~ 0.8;
#X text 669 185 4-voice polyphony;
#X obj 9 10 cnv 15 500 160 empty empty empty 20 12 0 14 -233017 -66577
0;
#X text 19 17 ---- NSynth ----, f 79;
#X text 19 37 NSynth is an algorithm for synthesizing musical notes
using deep neural networks. It presents a data-driven approach to synthesis
\, where the neural network learns a latent space of the timbre and
dynamics of existing sounds — that is \, a compressed data representation
based on features inferred from the data. A trained NSynth model can
encode arbitrary input sounds into the latent representation \, perform
transformations (e.g. interpolation) in the latent space and decode
back to audio., f 79;
#X text 19 124 Our generated NSynth sounds can be downloaded at:,
f 79;
#X text 19 144 https://drive.google.com/drive/folders/1yoJhvr2UY0ID3AP6jumUItJJGSkiBEg_
, f 79;
#X obj 9 180 cnv 15 500 220 empty empty empty 20 12 0 14 -233017 -66577
0;
#X text 19 188 1 - Load generated sounds., f 79;
#X text 19 239 The "load <sounds_file> <settings_file> <array>" message
loads sounds from the NSynth-formatted <sounds_file> (.bin) using settings
from <settings_file> (.json) and stores them in <array>., f 79;
#X obj 109 316 f \$0;
#X obj 109 283 bng 30 250 50 0 empty empty empty 17 7 0 10 -262144
-1 -1;
#X msg 109 335 load glass_string_whistle_wood.bin glass_string_whistle_wood_settings.json
\$1-audio;
#X obj 216 373 s \$0-in;
#X obj 9 411 cnv 15 800 310 empty empty empty 20 12 0 14 -233017 -66577
0;
#X text 19 420 2 - Explore the sounds., f 79;
#X text 19 440 Use the X/Y pad to move through interpolations between
the four corner sounds. Play notes by using MIDI input \, or enable
the virtual keyboard and play using A \, W \, S \, E \, D \, F \, T
\, G \, Y \, H \, U \, J \, K on your computer keyboard., f 79;
#X obj 531 628 stripnote;
#X obj 463 549 notein 1;
#X msg 531 649 note_on \$1;
#N canvas 334 57 449 610 keys 0;
#X floatatom 112 118 5 0 8 1 octave - -;
#X obj 58 45 loadbang;
#X msg 53 390 note \$1 \$2;
#X floatatom 112 137 5 0 127 1 velocity - -;
#X msg 29 68 100;
#X obj 53 368 pack f f;
#X obj 53 433 outlet;
#X obj 103 178 tgl 15 0 empty empty empty 17 7 0 10 -262144 -1 -1 0
1;
#X obj 248 13 keyname;
#X obj 120 178 tgl 15 0 empty empty empty 17 7 0 10 -262144 -1 -1 0
1;
#X obj 137 178 tgl 15 0 empty empty empty 17 7 0 10 -262144 -1 -1 0
1;
#X obj 154 178 tgl 15 0 empty empty empty 17 7 0 10 -262144 -1 -1 0
1;
#X obj 171 178 tgl 15 0 empty empty empty 17 7 0 10 -262144 -1 -1 0
1;
#X obj 188 178 tgl 15 0 empty empty empty 17 7 0 10 -262144 -1 -1 0
1;
#X obj 205 178 tgl 15 0 empty empty empty 17 7 0 10 -262144 -1 -1 0
1;
#X obj 222 178 tgl 15 0 empty empty empty 17 7 0 10 -262144 -1 -1 0
1;
#X obj 111 161 tgl 15 0 empty empty empty 17 7 0 10 -162280 -1 -1 0
1;
#X obj 128 161 tgl 15 0 empty empty empty 17 7 0 10 -162280 -1 -1 0
1;
#X obj 162 161 tgl 15 0 empty empty empty 17 7 0 10 -162280 -1 -1 0
1;
#X obj 179 161 tgl 15 0 empty empty empty 17 7 0 10 -162280 -1 -1 0
1;
#X obj 196 161 tgl 15 0 empty empty empty 17 7 0 10 -162280 -1 -1 0
1;
#X msg 248 53 \$2 \$1;
#X obj 248 33 pack f s;
#X obj 248 74 route a w s e d f t g y h u j k;
#X msg 111 215 1 \$1;
#X msg 144 215 3 \$1;
#X msg 215 215 6 \$1;
#X msg 249 215 8 \$1;
#X msg 283 215 10 \$1;
#X msg 97 237 0 \$1;
#X msg 131 237 2 \$1;
#X msg 165 237 4 \$1;
#X msg 199 237 5 \$1;
#X msg 233 237 7 \$1;
#X msg 267 237 9 \$1;
#X msg 341 237 12 \$1;
#X msg 301 237 11 \$1;
#X obj 20 324 expr $f1+12*$f2;
#X obj 34 287 unpack f f;
#X obj 136 324 *;
#X obj 53 412 spigot;
#X obj 199 119 tgl 15 0 empty empty on 17 7 0 10 -262144 -1 -1 0 1
;
#X msg 88 68 0;
#X msg 58 68 4;
#X connect 0 0 37 1;
#X connect 1 0 43 0;
#X connect 1 0 4 0;
#X connect 1 0 42 0;
#X connect 2 0 40 0;
#X connect 3 0 39 1;
#X connect 4 0 3 0;
#X connect 5 0 2 0;
#X connect 7 0 29 0;
#X connect 8 0 22 0;
#X connect 8 1 22 1;
#X connect 9 0 30 0;
#X connect 10 0 31 0;
#X connect 11 0 32 0;
#X connect 12 0 33 0;
#X connect 13 0 34 0;
#X connect 14 0 36 0;
#X connect 15 0 35 0;
#X connect 16 0 24 0;
#X connect 17 0 25 0;
#X connect 18 0 26 0;
#X connect 19 0 27 0;
#X connect 20 0 28 0;
#X connect 21 0 23 0;
#X connect 22 0 21 0;
#X connect 23 0 7 0;
#X connect 23 1 16 0;
#X connect 23 2 9 0;
#X connect 23 3 17 0;
#X connect 23 4 10 0;
#X connect 23 5 11 0;
#X connect 23 6 18 0;
#X connect 23 7 12 0;
#X connect 23 8 19 0;
#X connect 23 9 13 0;
#X connect 23 10 20 0;
#X connect 23 11 14 0;
#X connect 23 12 15 0;
#X connect 24 0 38 0;
#X connect 25 0 38 0;
#X connect 26 0 38 0;
#X connect 27 0 38 0;
#X connect 28 0 38 0;
#X connect 29 0 38 0;
#X connect 30 0 38 0;
#X connect 31 0 38 0;
#X connect 32 0 38 0;
#X connect 33 0 38 0;
#X connect 34 0 38 0;
#X connect 35 0 38 0;
#X connect 36 0 38 0;
#X connect 37 0 5 0;
#X connect 38 0 37 0;
#X connect 38 1 39 0;
#X connect 39 0 5 1;
#X connect 40 0 6 0;
#X connect 41 0 40 1;
#X connect 42 0 41 0;
#X connect 43 0 0 0;
#X coords 0 -1 1 1 140 96 1 100 100;
#X restore 586 476 pd keys;
#X obj 586 577 route note;
#X obj 586 601 unpack f f;
#X text 19 208 NSynth is much too slow to run in real time \, so what
this patch does is to load a grid of pregenerated sounds to play them.
, f 79;
#X obj 531 670 s \$0-note-in;
#X obj 618 47 r \$0-out;
#X obj 364 503 bng 15 250 50 0 empty empty empty 17 7 0 10 -262144
-1 -1;
#N canvas 251 54 857 728 nsynthui 0;
#X obj 18 42 inlet;
#X obj 253 42 inlet;
#X obj 62 125 print loader;
#X msg 101 495 position_rel \$1 \$2;
#X obj 30 251 grid grid2 140 0 1 140 0 1 0 0.01 0.01 10 10 170 677
;
#X obj 101 474 pack;
#X obj 18 169 route loaded;
#X obj 18 190 bng 15 250 50 0 empty empty empty 17 7 0 10 -262144 -1
-1;
#X msg 18 207 values 0 0;
#X obj 254 575 outlet;
#N canvas 357 244 450 278 (subpatch) 0;
#X array \$0-audio 3.888e+07 float 0;
#X coords 0 1 3.888e+07 -1 200 120 1 0 0;
#X restore 179 268 graph;
#X obj 18 100 pyext. sopimagenta.nsynth.pyext nsynth_loader @detach
1;
#X obj 227 547 pyext. sopimagenta.nsynth.pyext nsynth_controller @detach
1;
#X connect 0 0 11 1;
#X connect 1 0 12 1;
#X connect 3 0 12 1;
#X connect 4 0 5 1;
#X connect 4 1 5 0;
#X connect 5 0 3 0;
#X connect 6 0 7 0;
#X connect 7 0 8 0;
#X connect 8 0 4 0;
#X connect 11 0 2 0;
#X connect 11 0 6 0;
#X connect 11 0 12 1;
#X connect 12 0 9 0;
#X coords -1 -1 1 1 370 160 2 20 240;
#X restore 22 525 pd nsynthui;
#X obj 22 505 r \$0-in;
#X obj 385 482 r \$0-note-in;
#X obj 278 503 print note in;
#X obj 22 690 s \$0-out;
#N canvas 343 233 386 293 license 0;
#X text 9 227 For further information please contact to Koray Tahiroglu
\; email: koray.tahiroglu@aalto.fi \, mail: Aalto University School
of Arts \, Design and Architecture \, Department of Media \, room J101
\, Väre Otaniementie 14 \, 2150 Espoo \, Finland;
#X text 11 12 This program is free software \; you can redistribute
it and/or modify it under the terms of the GNU General Public License
as published by the Free Software Foundation \; either version 2 of
the License \, or (at your option) any later version.;
#X text 11 89 This program is distributed in the hope that it will
be useful \, but WITHOUT ANY WARRANTY \; without even the implied warranty
of MERCHANTABILITY or FITNESS FOR A PARTICULAR PURPOSE. See the GNU
General Public License for more details.;
#X text 10 161 You should have received a copy of the GNU General Public
License along with this program \; if not \, write to the Free Software
Foundation \, Inc. \, 51 Franklin Street \, Fifth Floor \, Boston \,
MA 02110-1301 \, USA.;
#X restore 980 657 pd license;
#X text 841 561 We make use of the following open source projects:
, f 59;
#X text 841 581 - pyext/flext (GPL v2), f 59;
#X text 841 620 Copyright (C) 2021 SOPI Research Group \, Aalto University
, f 59;
#X text 841 601 - Magenta/Open Nsynth Super (Apache 2.0), f 59;
#X text 841 487 nsynth.pd \, Deep Learning with Audio course material
for playing sounds generated by NSynth \, is provided by SOPI research
group (https://sopi.aalto.fi) Aalto University \, School of Arts \,
Design and Architecture 2021 \, under the GPL license GNU General Public
License version 2 | Open Source Initiative (https://opensource.org/licenses/gpl-2.0.php).
;
#X connect 0 0 1 0;
#X connect 1 0 6 0;
#X connect 1 0 4 0;
#X connect 2 0 14 0;
#X connect 3 0 5 0;
#X connect 3 0 11 0;
#X connect 4 0 3 0;
#X connect 5 0 7 0;
#X connect 6 0 7 1;
#X connect 6 1 7 2;
#X connect 6 2 7 3;
#X connect 6 3 7 4;
#X connect 7 0 12 0;
#X connect 8 0 14 0;
#X connect 9 0 14 0;
#X connect 10 0 14 0;
#X connect 11 0 3 1;
#X connect 12 0 2 0;
#X connect 12 1 8 0;
#X connect 12 2 9 0;
#X connect 12 3 10 0;
#X connect 14 0 13 0;
#X connect 14 0 13 1;
#X connect 24 0 26 0;
#X connect 25 0 24 0;
#X connect 26 0 27 0;
#X connect 31 0 33 0;
#X connect 32 0 31 0;
#X connect 32 1 31 1;
#X connect 33 0 38 0;
#X connect 34 0 35 0;
#X connect 35 0 36 0;
#X connect 36 0 31 0;
#X connect 36 1 31 1;
#X connect 39 0 0 0;
#X connect 41 0 45 0;
#X connect 42 0 41 0;
#X connect 43 0 40 0;
#X connect 43 0 41 1;
#X connect 43 0 44 0;
