#N canvas 0 593 500 409 12;
#X obj 140 258 vline~;
#X msg 140 237 \$1 \, \$2 \$3;
#X obj 140 167 expr $f1+1 \; $f2 \; $f3-1;
#X obj 140 216 pack f f f;
#X obj 140 146 unpack f f f f;
#X obj 140 279 tabread4~ \$1;
#X obj 142 304 outlet~;
#X obj 141 117 inlet;
#X connect 0 0 5 0;
#X connect 1 0 0 0;
#X connect 2 0 3 0;
#X connect 2 1 3 1;
#X connect 2 2 3 2;
#X connect 3 0 1 0;
#X connect 4 0 2 0;
#X connect 4 1 2 1;
#X connect 4 2 2 2;
#X connect 4 3 5 1;
#X connect 5 0 6 0;
#X connect 7 0 4 0;
