#N canvas 354 214 753 461 12;
#X obj 357 178 tabread;
#X msg 433 190 set \$1;
#X obj 491 52 loadbang;
#X obj 496 106 symbol \$1;
#X obj 552 150 f \$2;
#X obj 112 119 hsl 128 15 -10 10 0 0 empty empty empty -2 -8 0 10 -262144
-1 -1 0 1;
#X obj 405 316 tabwrite;
#X obj 248 119 bng 15 250 50 0 empty empty reset 17 7 0 10 -262144
-1 -1;
#X msg 241 250 0;
#X obj 352 45 inlet;
#X obj 352 69 bang;
#X connect 0 0 5 0;
#X connect 1 0 0 0;
#X connect 1 0 6 0;
#X connect 2 0 3 0;
#X connect 2 0 4 0;
#X connect 3 0 1 0;
#X connect 4 0 0 0;
#X connect 4 0 6 1;
#X connect 5 0 6 0;
#X connect 7 0 8 0;
#X connect 8 0 6 0;
#X connect 8 0 5 0;
#X connect 9 0 10 0;
#X connect 10 0 4 0;
#X coords 0 -1 1 1 200 40 1 100 100;
