#N canvas 2113 -53 822 614 10;
#X obj 186 100 cnv 15 275 150 empty empty empty 20 12 0 14 -233017
-66577 0;
#X obj 4 100 cnv 15 176 90 empty empty empty 20 12 0 14 -233017 -66577
0;
#N canvas 0 22 450 300 (subpatch) 0;
#X array \$0-sound 848000 float 0;
#X coords 0 1 847999 -1 200 140 1 0 0;
#X restore 14 456 graph;
#X obj 6 154 loadbang;
#X obj 240 577 dac~;
#X obj 241 507 vline~;
#X obj 240 530 tabread4~ \$0-sound;
#X text 6 102 1 - load GANSynth model from a saved checkpoint, f 28
;
#N canvas 760 492 450 300 print_input 0;
#X obj 139 24 inlet;
#X obj 147 97 outlet;
#X obj 201 65 print gansynth input;
#X connect 0 0 1 0;
#X connect 0 0 2 0;
#X restore 120 257 pd print_input;
#X obj 48 352 print gansynth output;
#X obj 240 552 *~ 0.5;
#X obj 187 137 bng 15 250 50 0 empty empty empty 17 7 0 10 -262144
-1 -1;
#X obj 187 154 f \$0;
#N canvas 261 142 450 300 loaded 0;
#X obj 102 102 tgl 15 0 empty empty loaded 17 7 0 10 -262144 -1 -1
1 1;
#X obj 99 19 inlet;
#X obj 103 68 f 1;
#X obj 101 43 route loaded unloaded;
#X obj 127 68 f 0;
#X connect 1 0 3 0;
#X connect 2 0 0 0;
#X connect 3 0 2 0;
#X connect 3 1 4 0;
#X connect 4 0 0 0;
#X coords 0 -1 1 1 60 20 2 100 100;
#X restore 294 374 pd loaded;
#X obj 121 279 pyext gansynth gansynth @detach 1;
#X msg 6 172 load pruu_train;
#X obj 198 330 route hallucinated;
#X obj 121 302 list trim;
#N canvas 2513 401 450 300 parse_length 0;
#X obj 113 29 inlet;
#X obj 108 193 outlet;
#X obj 108 123 - 1;
#X obj 108 146 pack \$1 \$2;
#X obj 108 100 t f f;
#X msg 108 169 1 \, \$1 \$2;
#X obj 173 119 expr $f1 / 16000 * 1000;
#X obj 112 65 f;
#X connect 0 0 7 0;
#X connect 2 0 3 0;
#X connect 3 0 5 0;
#X connect 4 0 2 0;
#X connect 4 1 6 0;
#X connect 5 0 1 0;
#X connect 6 0 3 1;
#X connect 7 0 4 0;
#X restore 240 483 pd parse_length;
#X text 187 102 2 - synthesize from the vector and a given pitch,
f 28;
#X obj 244 420 bng 15 250 50 0 empty empty play 17 7 0 10 -262144 -1
-1;
#X msg 401 375 stop;
#X text 314 158 note count;
#X text 329 146 interpolation count;
#X text 344 132 spacing;
#X text 354 117 start trim;
#X text 367 190 attack;
#X text 390 203 sustain;
#X text 410 215 release;
#X msg 189 174 hallucinate \$1-sound 10 10 0.5 0 0.5 1 0.5;
#X connect 3 0 15 0;
#X connect 5 0 6 0;
#X connect 6 0 10 0;
#X connect 8 0 14 1;
#X connect 10 0 4 0;
#X connect 10 0 4 1;
#X connect 11 0 12 0;
#X connect 12 0 29 0;
#X connect 14 0 17 0;
#X connect 15 0 8 0;
#X connect 16 0 18 0;
#X connect 16 1 13 0;
#X connect 17 0 9 0;
#X connect 17 0 16 0;
#X connect 18 0 5 0;
#X connect 20 0 18 0;
#X connect 21 0 5 0;
#X connect 29 0 8 0;
#X connect 29 0 21 0;
#X coords 0 614 1 613 0 0 0;
