#N canvas 719 22 720 392 10;
#X obj 365 8 cnv 15 176 72 empty empty empty 20 12 0 14 -233017 -66577
0;
#X obj 186 8 cnv 15 176 72 empty empty empty 20 12 0 14 -233017 -66577
0;
#X obj 7 8 cnv 15 176 72 empty empty empty 20 12 0 14 -233017 -66577
0;
#N canvas 0 22 450 300 (subpatch) 0;
#X array \$0-sound 64000 float 0 black black;
#X coords 0 1 63999 -1 200 140 1;
#X restore 209 266 graph;
#X obj 162 144 pyext pd_magenta gansynth @detach 1;
#X msg 9 61 load all_instruments;
#X obj 9 42 loadbang;
#X obj 423 361 dac~;
#X obj 423 304 vline~;
#X msg 423 285 1 \, 63998 4000;
#X obj 423 323 tabread4~ \$0-sound;
#N canvas 0 22 450 300 (subpatch) 0;
#X array \$0-z 256 float 2 black black;
#X coords 0 5 256 -5 200 140 1;
#X restore 6 266 graph;
#X text 9 10 1 - load GANSynth model from a saved checkpoint, f 28
;
#X text 367 10 3 - synthesize from the vector and a given pitch, f
28;
#N canvas 760 492 450 300 print_input 0;
#X obj 139 24 inlet;
#X obj 147 97 outlet;
#X obj 201 65 print gansynth input;
#X connect 0 0 1 0;
#X connect 0 0 2 0;
#X restore 224 115 pd print_input;
#X obj 423 266 bng 15 250 50 0 empty empty play 17 7 0 10 -262144 -1
-1;
#X msg 188 61 randomize_z \$0-z;
#X text 188 10 2 - generate a random latent vector for timbre, f 28
;
#X obj 162 184 print gansynth output;
#X msg 367 61 synthesize \$0-z \$0-sound 52;
#X obj 311 184 select synthesized;
#X obj 423 342 *~ 0.5;
#X connect 4 0 20 0;
#X connect 4 0 18 0;
#X connect 5 0 14 0;
#X connect 6 0 5 0;
#X connect 8 0 10 0;
#X connect 9 0 8 0;
#X connect 10 0 21 0;
#X connect 14 0 4 1;
#X connect 15 0 9 0;
#X connect 16 0 14 0;
#X connect 19 0 14 0;
#X connect 20 0 15 0;
#X connect 21 0 7 0;
#X connect 21 0 7 1;
#X coords 0 392 1 391 0 0 0;
