#N canvas 3009 119 823 751 10;
#X obj -14 -71 tabdump sliders;
#X obj -14 -13 +;
#X obj 31 -13 f;
#X obj -24 83 /;
#X obj -24 39 t b f;
#X msg -24 61 1;
#X obj -44 149 tabdump sliders;
#X obj -24 14 f;
#X obj -44 235 *;
#X obj -44 210 unpack f f f f;
#X obj -14 235 *;
#X obj 16 235 *;
#X obj 46 235 *;
#X obj -44 -121 r weigh;
#X obj -44 264 vsl 15 128 0 1 0 0 empty empty empty 0 -9 0 10 -262144
-1 -1 2278 1;
#X obj -14 264 vsl 15 128 0 1 0 0 empty empty empty 0 -9 0 10 -262144
-1 -1 4072 1;
#X obj 16 264 vsl 15 128 0 1 0 0 empty empty empty 0 -9 0 10 -262144
-1 -1 5384 1;
#X obj 46 264 vsl 15 128 0 1 0 0 empty empty empty 0 -9 0 10 -262144
-1 -1 966 1;
#X obj 157 181 tabwrite sliders;
#X msg 200 157 0;
#X obj 138 203 s weigh;
#X obj 138 133 t b f b;
#X obj 21 -102 table sliders 4;
#X msg 122 -42 0;
#X obj -44 -97 t b b b b;
#X floatatom 15 106 5 0 0 0 - - -;
#X obj 277 181 tabwrite sliders;
#X obj 258 203 s weigh;
#X obj 258 133 t b f b;
#X obj 397 181 tabwrite sliders;
#X obj 378 203 s weigh;
#X obj 378 133 t b f b;
#X obj 517 181 tabwrite sliders;
#X obj 498 203 s weigh;
#X obj 498 133 t b f b;
#X msg 320 157 1;
#X msg 440 157 2;
#X msg 560 157 3;
#X floatatom -79 235 5 0 0 0 - - weighted1;
#X floatatom 74 302 5 0 0 0 - - weighted3;
#X floatatom 69 252 5 0 0 0 - - weighted4;
#X floatatom -65 288 5 0 0 0 - - weighted2;
#X text 183 -110 NOTE: Requires the externals list-abs and zexy;
#X obj -14 -43 list-abs/list-drip;
#X obj -54 439 outlet;
#X obj -32 464 outlet;
#X obj -12 489 outlet;
#X obj 18 517 outlet;
#X obj 137 72 inlet a;
#X obj 260 72 inlet b;
#X obj 378 72 inlet c;
#X obj 499 72 inlet d;
#X connect 0 0 43 0;
#X connect 1 0 2 0;
#X connect 1 0 7 1;
#X connect 2 0 1 1;
#X connect 3 0 8 1;
#X connect 3 0 10 1;
#X connect 3 0 11 1;
#X connect 3 0 12 1;
#X connect 3 0 25 0;
#X connect 4 0 5 0;
#X connect 4 1 3 1;
#X connect 5 0 3 0;
#X connect 6 0 9 0;
#X connect 7 0 4 0;
#X connect 8 0 14 0;
#X connect 8 0 38 0;
#X connect 9 0 8 0;
#X connect 9 1 10 0;
#X connect 9 2 11 0;
#X connect 9 3 12 0;
#X connect 10 0 15 0;
#X connect 10 0 41 0;
#X connect 11 0 16 0;
#X connect 11 0 39 0;
#X connect 12 0 17 0;
#X connect 12 0 40 0;
#X connect 13 0 24 0;
#X connect 14 0 44 0;
#X connect 15 0 45 0;
#X connect 16 0 46 0;
#X connect 17 0 47 0;
#X connect 19 0 18 1;
#X connect 21 0 20 0;
#X connect 21 1 18 0;
#X connect 21 2 19 0;
#X connect 23 0 1 1;
#X connect 24 0 6 0;
#X connect 24 1 7 0;
#X connect 24 2 0 0;
#X connect 24 3 23 0;
#X connect 28 0 27 0;
#X connect 28 1 26 0;
#X connect 28 2 35 0;
#X connect 31 0 30 0;
#X connect 31 1 29 0;
#X connect 31 2 36 0;
#X connect 34 0 33 0;
#X connect 34 1 32 0;
#X connect 34 2 37 0;
#X connect 35 0 26 1;
#X connect 36 0 29 1;
#X connect 37 0 32 1;
#X connect 43 0 1 0;
#X connect 48 0 21 0;
#X connect 49 0 28 0;
#X connect 50 0 31 0;
#X connect 51 0 34 0;
#X coords 0 751 1 750 300 170 0;
