#N canvas 312 23 1040 834 10;
#X obj 8 160 cnv 15 600 150 empty empty empty 20 12 0 14 -228856 -66577
0;
#N canvas 760 492 450 300 print_input 0;
#X obj 139 24 inlet;
#X obj 147 97 outlet;
#X obj 201 65 print ddsp input;
#X connect 0 0 1 0;
#X connect 0 0 2 0;
#X restore 769 214 pd print_input;
#N canvas 261 142 450 300 loaded 0;
#X obj 102 103 tgl 15 0 empty empty loaded 17 7 0 10 -262144 -1 -1
0 1;
#X obj 100 77 f 1;
#X obj 124 77 f 0;
#X obj 99 55 route on off;
#X obj 100 34 route worker;
#X obj 100 12 r \$0-ddsp_out;
#X connect 1 0 0 0;
#X connect 2 0 0 0;
#X connect 3 0 1 0;
#X connect 3 1 2 0;
#X connect 4 0 3 0;
#X connect 5 0 4 0;
#X coords 0 -1 1 1 60 20 2 100 100;
#X restore 533 277 pd loaded;
#X obj 779 286 list trim;
#X obj 694 260 pyext ddsp_pd timbre_transfer @detach 1;
#X obj 264 277 s \$0-ddsp_in;
#X obj 774 187 r \$0-ddsp_in;
#X obj 709 321 print ddsp output;
#X obj 8 321 cnv 15 600 150 empty empty empty 20 12 0 14 -233017 -66577
0;
#X obj 8 482 cnv 15 600 340 empty empty empty 20 12 0 14 -233017 -66577
0;
#N canvas 433 112 978 766 run 0;
#X obj 128 721 s \$0-ddsp_in;
#X obj 519 158 bng 20 250 50 0 empty empty empty 17 7 0 10 -159808
-1 -1;
#X obj 27 597 f \$0;
#X obj 304 572 r \$0-in_sr;
#N canvas 0 23 450 300 (subpatch) 0;
#X array \$0-out 84480 float 0;
#X coords 0 1 84479 -1 200 140 1 0 0;
#X restore 488 224 graph;
#X text 540 161 run timbre transfer;
#X obj 108 213 nbx 5 14 -20 20 0 1 empty empty empty 0 -8 0 10 -204786
-1 -1 0 256;
#X text 105 196 f0 octave shift;
#X obj 108 293 nbx 5 14 0 1 0 1 empty empty empty 0 -8 0 10 -204786
-1 -1 0.2 256;
#X text 105 276 f0 confidence threshold;
#X obj 108 383 nbx 5 14 -100 100 0 1 empty empty empty 0 -8 0 10 -204786
-1 -1 0 256;
#X text 106 366 loudness db shift;
#X obj 333 151 vradio 15 1 0 2 empty empty empty 0 -8 0 10 -204786
-1 -1 0;
#X obj 93 506 expr 16000*pow(2 \, $f1);
#X text 352 151 16000;
#X text 352 167 32000;
#X text 331 134 output sample rate;
#X obj 93 525 s \$0-out_sr;
#X obj 370 572 r \$0-out_sr;
#X obj 20 277 s \$0-fos;
#X obj 20 356 s \$0-fct;
#X obj 20 449 s \$0-lds;
#X obj 22 212 loadbang;
#X obj 142 572 r \$0-fos;
#X obj 196 572 r \$0-fct;
#X obj 250 572 r \$0-lds;
#X obj 365 511 s \$0-run;
#X obj 16 577 r \$0-run;
#X obj 82 572 r \$0-ckpt;
#X obj 21 190 s \$0-ckpt;
#X obj 108 175 cnv 15 195 15 empty empty empty 20 12 0 14 -204786 -66577
0;
#X symbolatom 107 174 32 0 0 0 - - -;
#X obj 503 408 nbx 8 14 -1e+37 1e+37 0 0 empty empty empty 0 -8 0 10
-262144 -1 -1 0 256;
#X obj 716 200 r \$0-out_len;
#X obj 714 135 s \$0-out_len;
#X obj 711 90 r \$0-ddsp_out;
#X obj 713 112 route transferred;
#X obj 795 200 r \$0-out_sr;
#X obj 596 379 bng 20 250 50 0 empty empty empty 17 7 0 10 -159808
-1 -1;
#X text 501 391 length;
#X text 617 382 play;
#X obj 596 407 bng 20 250 50 0 empty empty empty 17 7 0 10 -159808
-1 -1;
#X obj 572 558 f \$0;
#X obj 567 628 soundfiler;
#X obj 587 510 savepanel;
#X obj 572 541 bng 15 250 50 0 empty empty empty 17 7 0 10 -262144
-1 -1;
#X obj 596 579 pack f s f;
#X obj 647 541 r \$0-out_sr;
#X msg 567 610 write -wave -rate \$3 \$2 \$1-out;
#X text 617 410 save...;
#X obj 107 151 bng 20 250 50 0 empty empty empty 17 7 0 10 -159808
-1 -1;
#X text 105 134 checkpoint;
#X obj 27 76 loadbang;
#X obj 27 97 symbol;
#X obj 106 70 symbol;
#X obj 755 503 symbol \$0-out;
#X obj 755 526 pack s f;
#X msg 755 549 \$1 \$2;
#X obj 755 572 s \$0-player;
#X obj 298 383 nbx 5 14 0 1 0 1 empty empty empty 0 -8 0 10 -204786
-1 -1 0 256;
#X text 296 366 autotune;
#X obj 713 344 s \$0-autotune;
#X text 105 231 (shifts the input audio's fundamental frequency by
the given number of octaves), f 30;
#X text 105 311 (silences pitched output whenever the pitch detector's
confidence is below the given number), f 30;
#X text 105 402 (adjusts overall loudness), f 30;
#X text 295 402 (nudges pitch towards the nearest note), f 30;
#X text 296 276 quiet;
#X obj 298 293 nbx 5 14 0 100 0 1 empty empty empty 0 -8 0 10 -204786
-1 -1 0 256;
#X text 295 311 (quiet parts without notes detected (dB)), f 30;
#X obj 298 213 tgl 15 0 empty empty empty 17 7 0 10 -262144 -1 -1 1
1;
#X text 316 212 auto adjust;
#X text 295 231 (uses dataset_statistics.pkl file to automatically
adjust settings \, if it exists), f 30;
#X obj 719 453 s \$0-quiet;
#X obj 715 267 s \$0-adjust;
#X msg 11 238 0;
#X msg 41 240 0.2;
#X msg 70 241 1;
#X obj 159 637 pack f s f f f f f f f f;
#X obj 330 598 r \$0-adjust;
#X obj 402 598 r \$0-quiet;
#X obj 468 598 r \$0-autotune;
#X text 157 669 run <ckpt_dir> <in_arr> <out_arr> [f0_octave_shift]
[f0_confidence_threshold] [loudness_db_shift] [in_sample_rate] [out_sample_rate]
[adjust] [quiet] [autotune], f 82;
#X msg 128 703 run \$2 \$1-in \$1-out \$3 \$4 \$5 \$6 \$7 \$8 \$9 \$10
;
#X obj 19 164 openpanel;
#X text 128 153 select .gin file...;
#X text 104 107 3 - Transfer the timbre of the checkpoint onto the
input audio., f 97;
#X connect 1 0 26 0;
#X connect 2 0 77 0;
#X connect 3 0 77 5;
#X connect 6 0 19 0;
#X connect 8 0 20 0;
#X connect 10 0 21 0;
#X connect 12 0 13 0;
#X connect 13 0 17 0;
#X connect 18 0 77 6;
#X connect 22 0 74 0;
#X connect 22 0 75 0;
#X connect 22 0 76 0;
#X connect 23 0 77 2;
#X connect 24 0 77 3;
#X connect 25 0 77 4;
#X connect 27 0 2 0;
#X connect 28 0 77 1;
#X connect 31 0 29 0;
#X connect 33 0 32 0;
#X connect 33 0 38 0;
#X connect 35 0 36 0;
#X connect 36 0 34 0;
#X connect 37 0 56 1;
#X connect 38 0 55 0;
#X connect 41 0 44 0;
#X connect 42 0 46 0;
#X connect 44 0 45 0;
#X connect 44 0 46 1;
#X connect 45 0 42 0;
#X connect 46 0 48 0;
#X connect 47 0 46 2;
#X connect 48 0 43 0;
#X connect 50 0 83 0;
#X connect 52 0 53 0;
#X connect 53 0 31 0;
#X connect 54 0 29 0;
#X connect 54 0 31 0;
#X connect 55 0 56 0;
#X connect 56 0 57 0;
#X connect 57 0 58 0;
#X connect 59 0 61 0;
#X connect 67 0 72 0;
#X connect 69 0 73 0;
#X connect 74 0 6 0;
#X connect 74 0 10 0;
#X connect 74 0 67 0;
#X connect 74 0 59 0;
#X connect 74 0 12 0;
#X connect 75 0 8 0;
#X connect 76 0 69 0;
#X connect 77 0 82 0;
#X connect 78 0 77 7;
#X connect 79 0 77 8;
#X connect 80 0 77 9;
#X connect 82 0 0 0;
#X connect 83 0 31 0;
#X coords 0 -1 1 1 600 340 2 100 100;
#X restore 8 482 pd run;
#N canvas 385 176 874 653 input 0;
#X obj 141 140 bng 20 250 50 0 empty empty empty 34 14 0 10 -159808
-1 -1;
#N canvas 0 23 450 300 (subpatch) 0;
#X array \$0-in 232960 float 0;
#X coords 0 1 232959 -1 200 100 1 0 0;
#X restore 304 136 graph;
#X obj 71 373 openpanel;
#X obj 72 442 soundfiler;
#X obj 139 383 f \$0;
#X obj 139 364 loadbang;
#X obj 71 400 pack s f;
#X msg 71 418 read -resize \$1 \$2-in;
#X obj 144 462 unpack f f f f;
#X obj 603 61 r \$0-in_sr;
#X obj 145 484 s \$0-in_sr;
#X obj 71 484 s \$0-in_len;
#X obj 519 58 r \$0-in_len;
#X text 162 143 select file...;
#X obj 519 153 nbx 8 14 -1e+37 1e+37 0 0 empty empty empty 0 -8 0 10
-262144 -1 -1 0 256;
#X obj 609 153 nbx 8 14 -1e+37 1e+37 0 0 empty empty empty 0 -8 0 10
-262144 -1 -1 0 256;
#X text 517 135 length;
#X text 607 135 sample rate;
#X obj 519 178 bng 20 250 50 0 empty empty empty 34 14 0 10 -159808
-1 -1;
#X text 540 181 normalize;
#X obj 709 237 f \$0;
#X obj 709 290 s \$0-ddsp_in;
#X msg 709 263 normalize \$1-in 0.9;
#X obj 141 171 bng 20 250 50 0 empty empty empty 34 14 0 10 -159808
-1 -1;
#X text 162 174 record (5 secs);
#X obj 163 218 tgl 15 0 empty empty recording 17 7 0 10 -262144 -1
-1 0 1;
#X msg 413 394 open \$1;
#X obj 385 344 t b b;
#X obj 413 373 symbol;
#X obj 436 324 loadbang;
#X msg 381 449 start;
#X obj 311 441 delay 5000;
#X msg 344 485 stop, f 5;
#X msg 275 441 1;
#X obj 351 415 t b b b;
#X obj 304 463 t b b b;
#X msg 274 488 0;
#X obj 473 411 symbol;
#X msg 466 461 read \$1 \$2-in;
#X obj 597 350 f \$0;
#X obj 473 434 pack s f;
#X obj 351 395 delay 100;
#X obj 489 375 delay 100;
#X obj 592 320 bng 15 250 50 0 empty empty empty 17 7 0 10 -262144
-1 -1;
#X msg 434 349 symbol temp_recording.wav;
#X obj 408 482 adc~ 1;
#X obj 434 603 writesf~ 1;
#X msg 317 549 print;
#X obj 376 569 print writesf;
#X text 120 197 DSP must be on to record!;
#X obj 519 209 bng 20 250 50 0 empty empty empty 17 7 0 10 -159808
-1 -1;
#X obj 658 409 s \$0-player;
#X text 540 211 play;
#X obj 659 343 symbol \$0-in;
#X obj 658 365 pack s f;
#X msg 658 387 \$1 \$2;
#X text 106 106 2 - Load an input sound.;
#X connect 0 0 2 0;
#X connect 2 0 6 0;
#X connect 3 0 11 0;
#X connect 3 1 8 0;
#X connect 4 0 6 1;
#X connect 5 0 4 0;
#X connect 6 0 7 0;
#X connect 7 0 3 0;
#X connect 8 0 10 0;
#X connect 9 0 15 0;
#X connect 9 0 54 1;
#X connect 12 0 14 0;
#X connect 18 0 20 0;
#X connect 20 0 22 0;
#X connect 22 0 21 0;
#X connect 23 0 27 0;
#X connect 26 0 46 0;
#X connect 26 0 48 0;
#X connect 27 0 41 0;
#X connect 27 1 28 0;
#X connect 28 0 26 0;
#X connect 29 0 44 0;
#X connect 29 0 39 0;
#X connect 30 0 46 0;
#X connect 30 0 48 0;
#X connect 31 0 35 0;
#X connect 32 0 46 0;
#X connect 32 0 48 0;
#X connect 33 0 25 0;
#X connect 34 0 33 0;
#X connect 34 1 31 0;
#X connect 34 2 30 0;
#X connect 35 0 36 0;
#X connect 35 1 42 0;
#X connect 35 2 32 0;
#X connect 36 0 25 0;
#X connect 37 0 40 0;
#X connect 38 0 3 0;
#X connect 39 0 40 1;
#X connect 40 0 38 0;
#X connect 41 0 34 0;
#X connect 42 0 37 0;
#X connect 43 0 39 0;
#X connect 44 0 28 1;
#X connect 44 0 37 1;
#X connect 45 0 46 0;
#X connect 47 0 46 0;
#X connect 50 0 53 0;
#X connect 53 0 54 0;
#X connect 54 0 55 0;
#X connect 55 0 51 0;
#X coords 0 -1 1 1 600 150 2 100 100;
#X restore 8 321 pd input;
#X obj 818 321 s \$0-ddsp_out;
#X obj 775 468 dac~;
#X obj 775 447 *~ 0.5;
#X obj 775 406 r \$0-player;
#X obj 8 9 cnv 15 600 140 empty empty empty 20 12 0 14 -228856 -66577
0;
#X text 12 14 ---- Timbre transfer (DDSP) ----, f 97;
#X text 12 185 The worker can be started with the "load <python>" message
\, where <python> is the path to your DDSP Conda environment's Python
executable., f 97;
#X text 12 217 To find this path \, activate your DDSP Conda environment
and run: which python, f 97;
#X msg 118 246 load /usr/local/Caskroom/miniconda/base/envs/ddsp/bin/python
;
#N canvas 298 214 450 300 player 0;
#X obj 92 213 vline~;
#X msg 232 161 set \$1;
#X obj 142 245 tabread4~;
#X obj 92 173 pack f f;
#X msg 92 193 1 \, \$1 \$2;
#X obj 105 151 expr $f1/$f2*1000;
#X obj 39 151 expr $f1-2;
#X obj 73 125 array size;
#X obj 163 51 t a a;
#X obj 232 139 unpack s f;
#X obj 128 78 unpack s f;
#X obj 128 101 t b s;
#X obj 142 266 outlet;
#X obj 163 28 inlet;
#X connect 0 0 2 0;
#X connect 1 0 2 0;
#X connect 2 0 12 0;
#X connect 3 0 4 0;
#X connect 4 0 0 0;
#X connect 5 0 3 1;
#X connect 6 0 3 0;
#X connect 7 0 6 0;
#X connect 7 0 5 0;
#X connect 8 0 10 0;
#X connect 8 1 9 0;
#X connect 9 0 1 0;
#X connect 10 0 11 0;
#X connect 10 1 5 1;
#X connect 11 0 7 0;
#X connect 11 1 7 1;
#X connect 13 0 8 0;
#X restore 775 427 pd player;
#X text 667 585 We make use of the following open source projects:
, f 53;
#X text 667 605 - pyext/flext (GPL v2), f 53;
#X text 667 554 This work is provided by SOPI research group (https://sopi.aalto.fi)
under the ??? license (TBD)., f 53;
#X text 12 165 1 - Start the DDSP worker process., f 97;
#X text 667 625 - DDSP (Apache 2.0), f 53;
#X text 12 34 DDSP (Differentiable Digital Signal Processing) is a
library for generating audio through a combination of standard DSP
techniques and deep learning \, introduced by Magenta in January 2020
Instead of directly generating audio samples or frequency spectra \,
DDSP's approach is to provide a library of DSP elements (oscillators
\, filters \, reverbs...) implemented as differentiable functions \,
allowing them to be used as components of deep learning models that
are trained with backpropagation and gradient descent., f 97;
#X text 12 109 Pre-trained DDSP models can be downloaded at:, f 97
;
#X text 12 129 https://drive.google.com/drive/folders/1yoJhvr2UY0ID3AP6jumUItJJGSkiBEg_
, f 97;
#X connect 1 0 4 1;
#X connect 3 0 7 0;
#X connect 3 0 12 0;
#X connect 4 0 3 0;
#X connect 6 0 1 0;
#X connect 14 0 13 0;
#X connect 14 0 13 1;
#X connect 15 0 21 0;
#X connect 20 0 5 0;
#X connect 21 0 14 0;
#X coords 0 834 1 833 0 0 0;
