#N canvas 291 96 989 600 10;
#X obj 11 18 cnv 15 600 150 empty empty empty 20 12 0 14 -228856 -66577
0;
#N canvas 760 492 450 300 print_input 0;
#X obj 139 24 inlet;
#X obj 147 97 outlet;
#X obj 201 65 print ddsp input;
#X connect 0 0 1 0;
#X connect 0 0 2 0;
#X restore 769 232 pd print_input;
#N canvas 261 142 450 300 loaded 0;
#X obj 102 103 tgl 15 0 empty empty loaded 17 7 0 10 -262144 -1 -1
0 1;
#X obj 100 77 f 1;
#X obj 124 77 f 0;
#X obj 99 55 route on off;
#X obj 100 34 route worker;
#X obj 100 12 r \$0-ddsp_out;
#X connect 1 0 0 0;
#X connect 2 0 0 0;
#X connect 3 0 1 0;
#X connect 3 1 2 0;
#X connect 4 0 3 0;
#X connect 5 0 4 0;
#X coords 0 -1 1 1 60 20 2 100 100;
#X restore 536 135 pd loaded;
#X obj 779 304 list trim;
#X obj 694 278 pyext ddsp_pd timbre_transfer @detach 1;
#X obj 53 132 s \$0-ddsp_in;
#X obj 774 205 r \$0-ddsp_in;
#X obj 685 339 print ddsp output;
#X obj 11 178 cnv 15 600 200 empty empty empty 20 12 0 14 -233017 -66577
0;
#X obj 11 388 cnv 15 600 200 empty empty empty 20 12 0 14 -233017 -66577
0;
#N canvas 297 212 978 592 run 0;
#X obj 128 531 s \$0-ddsp_in;
#X obj 318 269 bng 20 250 50 0 empty empty empty 17 7 0 10 -159808
-1 -1;
#X obj 81 423 f \$0;
#X obj 364 381 r \$0-in_sr;
#X text 157 479 run <ckpt_dir> <in_arr> <out_arr> [f0_octave_shift]
[f0_confidence_threshold] [loudness_db_shift] [in_sample_rate] [out_sample_rate]
, f 82;
#N canvas 0 23 450 300 (subpatch) 0;
#X array \$0-out 84480 float 0;
#X coords 0 1 84479 -1 200 140 1 0 0;
#X restore 490 119 graph;
#X text 339 272 run timbre transfer;
#X obj 318 151 nbx 5 14 -20 20 0 1 empty empty empty 0 -8 0 10 -204786
-1 -1 0 256;
#X text 315 135 f0 octave shift;
#X obj 318 191 nbx 5 14 0 1 0 1 empty empty empty 0 -8 0 10 -204786
-1 -1 0.3 256;
#X text 315 175 f0 confidence threshold;
#X obj 318 230 nbx 5 14 -100 100 0 1 empty empty empty 0 -8 0 10 -204786
-1 -1 0 256;
#X text 316 214 loudness db shift;
#X obj 108 215 vradio 15 1 0 2 empty empty empty 0 -8 0 10 -204786
-1 -1 0;
#X obj 93 316 expr 16000*pow(2 \, $f1);
#X text 127 215 16000;
#X text 127 231 32000;
#X text 106 198 output sample rate;
#X obj 93 335 s \$0-out_sr;
#X obj 430 381 r \$0-out_sr;
#X obj 276 14 s \$0-fos;
#X obj 276 43 s \$0-fct;
#X obj 272 75 s \$0-lds;
#X obj 22 212 loadbang;
#X obj 22 230 f 0;
#X obj 202 381 r \$0-fos;
#X obj 256 381 r \$0-fct;
#X obj 310 381 r \$0-lds;
#X obj 365 321 s \$0-run;
#X obj 70 403 r \$0-run;
#X obj 159 447 pack f s f f f f f;
#X obj 142 381 r \$0-ckpt;
#X obj 21 190 s \$0-ckpt;
#X msg 128 513 run \$2 \$1-in \$1-out \$3 \$4 \$5 \$6 \$7;
#X text 104 107 transfer the timbre of the checkpoint onto the input
audio, f 97;
#X obj 108 175 cnv 15 195 15 empty empty empty 20 12 0 14 -204786 -66577
0;
#X symbolatom 107 174 32 0 0 0 - - -;
#X obj 488 279 nbx 8 14 -1e+37 1e+37 0 0 empty empty empty 0 -8 0 10
-262144 -1 -1 0 256;
#X obj 716 200 r \$0-out_len;
#X obj 714 135 s \$0-out_len;
#X obj 711 90 r \$0-ddsp_out;
#X obj 713 112 route transferred;
#X obj 795 200 r \$0-out_sr;
#X obj 776 435 dac~;
#X obj 776 378 vline~;
#X obj 571 269 bng 20 250 50 0 empty empty empty 17 7 0 10 -159808
-1 -1;
#X obj 776 416 *~ 0.5;
#X obj 776 397 tabread4~ \$0-out;
#X text 486 262 length;
#X text 592 272 play;
#X obj 812 252 expr $f1/$f2*1000;
#X obj 736 253 expr $f1-2;
#X obj 624 269 bng 20 250 50 0 empty empty empty 17 7 0 10 -159808
-1 -1;
#X obj 572 368 f \$0;
#X obj 567 438 soundfiler;
#X obj 587 320 savepanel;
#X obj 572 351 bng 15 250 50 0 empty empty empty 17 7 0 10 -262144
-1 -1;
#X obj 596 389 pack f s f;
#X obj 647 351 r \$0-out_sr;
#X msg 567 420 write -wave -rate \$3 \$2 \$1-out;
#X text 645 272 save...;
#X obj 107 151 bng 20 250 50 0 empty empty empty 17 7 0 10 -159808
-1 -1;
#X obj 19 164 openpanel 1;
#X text 105 134 checkpoint;
#X text 128 153 select directory...;
#X obj 27 76 loadbang;
#X obj 27 97 symbol;
#X obj 756 327 pack f f;
#X msg 776 359 1 \, \$1 \$2;
#X obj 106 70 symbol;
#X msg 815 48 normalize;
#X connect 1 0 28 0;
#X connect 2 0 30 0;
#X connect 3 0 30 5;
#X connect 7 0 20 0;
#X connect 9 0 21 0;
#X connect 11 0 22 0;
#X connect 13 0 14 0;
#X connect 14 0 18 0;
#X connect 19 0 30 6;
#X connect 23 0 24 0;
#X connect 24 0 13 0;
#X connect 25 0 30 2;
#X connect 26 0 30 3;
#X connect 27 0 30 4;
#X connect 29 0 2 0;
#X connect 30 0 33 0;
#X connect 31 0 30 1;
#X connect 33 0 0 0;
#X connect 36 0 32 0;
#X connect 38 0 37 0;
#X connect 38 0 50 0;
#X connect 38 0 51 0;
#X connect 38 0 45 0;
#X connect 40 0 41 0;
#X connect 41 0 39 0;
#X connect 42 0 50 1;
#X connect 44 0 47 0;
#X connect 45 0 67 0;
#X connect 46 0 43 0;
#X connect 46 0 43 1;
#X connect 47 0 46 0;
#X connect 50 0 67 1;
#X connect 51 0 67 0;
#X connect 52 0 55 0;
#X connect 53 0 57 0;
#X connect 55 0 56 0;
#X connect 55 0 57 1;
#X connect 56 0 53 0;
#X connect 57 0 59 0;
#X connect 58 0 57 2;
#X connect 59 0 54 0;
#X connect 61 0 62 0;
#X connect 62 0 36 0;
#X connect 65 0 66 0;
#X connect 66 0 36 0;
#X connect 67 0 68 0;
#X connect 68 0 44 0;
#X connect 69 0 32 0;
#X connect 69 0 36 0;
#X coords 0 -1 1 1 600 200 2 100 100;
#X restore 11 388 pd run;
#N canvas 331 225 809 653 input 0;
#X obj 141 165 bng 20 250 50 0 empty empty empty 34 14 0 10 -159808
-1 -1;
#N canvas 0 23 450 300 (subpatch) 0;
#X array \$0-in 232960 float 0;
#X coords 0 1 232959 -1 200 140 1;
#X restore 304 136 graph;
#X obj 71 373 openpanel;
#X obj 72 442 soundfiler;
#X obj 139 383 f \$0;
#X text 105 106 load an input sound, f 131;
#X obj 139 364 loadbang;
#X obj 71 400 pack s f;
#X msg 71 418 read -resize \$1 \$2-in;
#X obj 144 462 unpack f f f f;
#X obj 603 61 r \$0-in_sr;
#X obj 145 484 s \$0-in_sr;
#X obj 71 484 s \$0-in_len;
#X obj 519 58 r \$0-in_len;
#X text 162 168 select file...;
#X obj 554 171 nbx 8 14 -1e+37 1e+37 0 0 empty empty empty 0 -8 0 10
-262144 -1 -1 0 256;
#X obj 554 210 nbx 8 14 -1e+37 1e+37 0 0 empty empty empty 0 -8 0 10
-262144 -1 -1 0 256;
#X text 552 153 length;
#X text 552 192 sample rate;
#X obj 553 239 bng 20 250 50 0 empty empty empty 34 14 0 10 -159808
-1 -1;
#X text 574 242 normalize;
#X obj 675 360 f \$0;
#X obj 675 413 s \$0-ddsp_in;
#X msg 675 386 normalize \$1-in 0.9;
#X obj 141 212 bng 20 250 50 0 empty empty empty 34 14 0 10 -159808
-1 -1;
#X text 162 215 record (5 secs);
#X obj 163 262 tgl 15 0 empty empty recording 17 7 0 10 -262144 -1
-1 0 1;
#X msg 413 394 open \$1;
#X obj 385 344 t b b;
#X obj 413 373 symbol;
#X obj 436 324 loadbang;
#X msg 381 449 start;
#X obj 311 441 delay 5000;
#X msg 344 485 stop, f 5;
#X msg 275 441 1;
#X obj 351 415 t b b b;
#X obj 304 463 t b b b;
#X msg 274 488 0;
#X obj 473 411 symbol;
#X msg 466 461 read \$1 \$2-in;
#X obj 597 350 f \$0;
#X obj 473 434 pack s f;
#X obj 351 395 delay 100;
#X obj 489 375 delay 100;
#X obj 592 320 bng 15 250 50 0 empty empty empty 17 7 0 10 -262144
-1 -1;
#X msg 434 349 symbol temp_recording.wav;
#X obj 408 482 adc~ 1;
#X obj 434 603 writesf~ 1;
#X msg 317 549 print;
#X obj 376 569 print writesf;
#X text 120 238 DSP must be on to record!;
#X connect 0 0 2 0;
#X connect 2 0 7 0;
#X connect 3 0 12 0;
#X connect 3 1 9 0;
#X connect 4 0 7 1;
#X connect 6 0 4 0;
#X connect 7 0 8 0;
#X connect 8 0 3 0;
#X connect 9 0 11 0;
#X connect 10 0 16 0;
#X connect 13 0 15 0;
#X connect 19 0 21 0;
#X connect 21 0 23 0;
#X connect 23 0 22 0;
#X connect 24 0 28 0;
#X connect 27 0 47 0;
#X connect 27 0 49 0;
#X connect 28 0 42 0;
#X connect 28 1 29 0;
#X connect 29 0 27 0;
#X connect 30 0 45 0;
#X connect 30 0 40 0;
#X connect 31 0 47 0;
#X connect 31 0 49 0;
#X connect 32 0 36 0;
#X connect 33 0 47 0;
#X connect 33 0 49 0;
#X connect 34 0 26 0;
#X connect 35 0 34 0;
#X connect 35 1 32 0;
#X connect 35 2 31 0;
#X connect 36 0 37 0;
#X connect 36 1 43 0;
#X connect 36 2 33 0;
#X connect 37 0 26 0;
#X connect 38 0 41 0;
#X connect 39 0 3 0;
#X connect 40 0 41 1;
#X connect 41 0 39 0;
#X connect 42 0 35 0;
#X connect 43 0 38 0;
#X connect 44 0 40 0;
#X connect 45 0 29 1;
#X connect 45 0 38 1;
#X connect 46 0 47 0;
#X connect 48 0 47 0;
#X coords 0 -1 1 1 600 200 2 100 100;
#X restore 11 178 pd input;
#X obj 794 339 s \$0-ddsp_out;
#X text 15 23 start the ddsp worker script using the Python interpreter
at the given path, f 97;
#X text 51 73 you need to run `which python` in your ddsp Conda environment
and enter the resulting path here!, f 61;
#X msg 53 101 load /usr/local/Caskroom/miniconda/base/envs/ddsp/bin/python
;
#X connect 1 0 4 1;
#X connect 3 0 7 0;
#X connect 3 0 12 0;
#X connect 4 0 3 0;
#X connect 6 0 1 0;
#X connect 15 0 5 0;
#X coords 0 600 1 599 0 0 0;
