#N canvas 1507 667 793 470 12;
#X obj 110 206 hsl 120 18 0 1 0 0 empty empty empty -2 -8 0 10 -232576
-1 -1 11900 1;
#X floatatom 232 205 5 0 0 0 - - -;
#X obj 10 3 inlet;
#X obj 118 334 outlet;
#X msg 10 27 set \$1;
#X obj 10 51 t b a;
#X obj 105 163 spigot 1;
#X msg 10 72 1;
#X obj 119 236 t a b;
#X msg 134 263 0;
#X obj 216 163 spigot 1;
#X obj 216 234 t a b;
#X msg 221 261 0;
#X obj 182 5 loadbang;
#X obj 182 53 f \$1;
#X msg 182 101 range \$1 \$2;
#X obj 216 53 f \$2;
#X obj 182 29 t b b;
#X obj 182 77 pack f f;
#X obj 291 18 r intrange;
#X floatatom 355 143 5 0 0 0 - - -;
#X obj 293 106 expr ((8 - $f1) / ($f1 - 1) + 1) \;;
#X obj 298 128 int;
#X obj 294 84 clip 0 8;
#X obj 302 160 t b f;
#X floatatom 294 63 5 0 0 0 - - -;
#X obj 339 62 del 30;
#X obj 292 41 t b a;
#X connect 0 0 8 0;
#X connect 1 0 11 0;
#X connect 2 0 4 0;
#X connect 4 0 5 0;
#X connect 5 0 7 0;
#X connect 5 1 6 0;
#X connect 5 1 10 0;
#X connect 6 0 0 0;
#X connect 7 0 6 1;
#X connect 7 0 10 1;
#X connect 8 0 3 0;
#X connect 8 1 9 0;
#X connect 9 0 6 1;
#X connect 10 0 1 0;
#X connect 11 1 12 0;
#X connect 12 0 10 1;
#X connect 12 0 3 0;
#X connect 13 0 17 0;
#X connect 14 0 18 0;
#X connect 15 0 0 0;
#X connect 16 0 18 1;
#X connect 17 0 14 0;
#X connect 17 1 16 0;
#X connect 18 0 15 0;
#X connect 19 0 27 0;
#X connect 21 0 22 0;
#X connect 22 0 20 0;
#X connect 22 0 24 0;
#X connect 23 0 21 0;
#X connect 24 0 17 0;
#X connect 24 1 16 1;
#X connect 25 0 23 0;
#X connect 26 0 25 0;
#X connect 27 0 26 0;
#X connect 27 1 25 0;
#X coords 0 -1 1 1 174 28 2 100 200;
