#N canvas 306 23 1134 617 10;
#X obj 557 28 cnv 15 176 90 empty empty empty 20 12 0 14 -233017 -66577
0;
#X obj 10 24 cnv 15 176 90 empty empty empty 20 12 0 14 -233017 -66577
0;
#N canvas 0 22 450 300 (subpatch) 0;
#X array \$0-sound 64000 float 0;
#X coords 0 1 63999 -1 200 140 1;
#X restore 433 282 graph;
#X obj 12 78 loadbang;
#X obj 703 409 dac~;
#X obj 703 352 vline~;
#X msg 703 333 1 \, 63998 4000;
#X obj 703 371 tabread4~ \$0-sound;
#N canvas 0 22 450 300 (subpatch) 0;
#X array \$0-z 256 float 2;
#X coords 0 5 256 -5 200 140 1;
#X restore 21 282 graph;
#X text 12 26 1 - load GANSynth model from a saved checkpoint, f 28
;
#N canvas 760 492 450 300 print_input 0;
#X obj 139 24 inlet;
#X obj 147 97 outlet;
#X obj 201 65 print gansynth input;
#X connect 0 0 1 0;
#X connect 0 0 2 0;
#X restore 216 151 pd print_input;
#X obj 703 311 bng 20 250 50 0 empty empty play 22 10 0 10 -232576
-1 -1;
#X obj 262 214 print gansynth output;
#X obj 703 390 *~ 0.5;
#X obj 559 60 bng 20 250 50 0 empty empty empty 17 7 0 10 -232576 -1
-1;
#X obj 559 82 f \$0;
#N canvas 501 282 450 300 loaded 0;
#X obj 102 102 tgl 15 0 empty empty loaded 17 7 0 10 -262144 -1 -1
64000 1;
#X obj 103 68 f 1;
#X obj 101 43 route loaded unloaded;
#X obj 127 68 f 0;
#X obj 101 25 r \$0-gansynth_out;
#X connect 1 0 0 0;
#X connect 2 0 1 0;
#X connect 2 1 3 0;
#X connect 3 0 0 0;
#X connect 4 0 2 0;
#X coords 0 -1 1 1 60 20 2 100 100;
#X restore 114 64 pd loaded;
#X obj 234 192 list trim;
#X obj 703 282 route synthesized;
#X obj 161 171 pyext gansynth gansynth @detach 1;
#X obj 154 214 s \$0-gansynth_out;
#X obj 703 264 r \$0-gansynth_out;
#X obj 195 25 cnv 15 280 90 empty empty empty 20 12 0 14 -233017 -66577
0;
#X obj 197 57 bng 20 250 50 0 empty empty empty 17 7 0 10 -232576 -1
-1;
#X obj 197 79 f \$0;
#X text 198 26 2 - load ganspace components from file, f 45;
#N canvas 0 22 450 300 (subpatch) 0;
#X array \$0-amplitudes 8192 float 2;
#X coords 0 -10 8192 10 200 140 1 0 0;
#X restore 227 282 graph;
#X obj 21 433 array-slider \$0-amplitudes 0;
#X obj 21 475 array-slider \$0-amplitudes 1;
#X obj 21 517 array-slider \$0-amplitudes 2;
#X obj 21 559 array-slider \$0-amplitudes 3;
#X obj 227 433 array-slider \$0-amplitudes 4;
#X obj 227 475 array-slider \$0-amplitudes 5;
#X obj 227 517 array-slider \$0-amplitudes 6;
#X obj 227 559 array-slider \$0-amplitudes 7;
#X obj 433 433 array-slider \$0-amplitudes 8;
#X obj 433 475 array-slider \$0-amplitudes 9;
#X obj 433 517 array-slider \$0-amplitudes 10;
#X msg 12 96 load all_instruments;
#X msg 197 97 load_ganspace_components all_instruments_conv0_ipca_4194304.pickle
\$1-amplitudes;
#X text 558 29 3 - synthesize;
#X msg 559 100 synthesize_noz \$1-sound 45;
#X obj 433 559 array-slider \$0-amplitudes 11;
#X obj 647 433 array-slider \$0-amplitudes 12;
#X obj 647 475 array-slider \$0-amplitudes 13;
#X obj 647 517 array-slider \$0-amplitudes 14;
#X obj 647 559 array-slider \$0-amplitudes 15;
#X connect 3 0 38 0;
#X connect 5 0 7 0;
#X connect 6 0 5 0;
#X connect 7 0 13 0;
#X connect 10 0 19 1;
#X connect 11 0 6 0;
#X connect 13 0 4 0;
#X connect 13 0 4 1;
#X connect 14 0 15 0;
#X connect 15 0 41 0;
#X connect 17 0 12 0;
#X connect 17 0 20 0;
#X connect 18 0 11 0;
#X connect 19 0 17 0;
#X connect 21 0 18 0;
#X connect 23 0 24 0;
#X connect 24 0 39 0;
#X connect 38 0 10 0;
#X connect 39 0 10 0;
#X connect 41 0 10 0;
#X coords 0 617 1 616 0 0 0;
