#N canvas 54 189 591 521 12;
#X obj 104 120 ../array-slider \$1 0;
#X obj 309 120 ../array-slider \$1 1;
#X obj 104 165 ../array-slider \$1 2;
#X obj 309 165 ../array-slider \$1 3;
#X obj 104 210 ../array-slider \$1 4;
#X obj 309 210 ../array-slider \$1 5;
#X obj 104 255 ../array-slider \$1 6;
#X obj 309 255 ../array-slider \$1 7;
#X obj 104 300 ../array-slider \$1 8;
#X obj 104 345 ../array-slider \$1 10;
#X obj 104 390 ../array-slider \$1 12;
#X obj 104 435 ../array-slider \$1 14;
#X obj 309 300 ../array-slider \$1 9;
#X obj 309 345 ../array-slider \$1 11;
#X obj 309 390 ../array-slider \$1 13;
#X obj 309 435 ../array-slider \$1 15;
#X obj 62 46 inlet;
#X connect 16 0 0 0;
#X connect 16 0 1 0;
#X connect 16 0 2 0;
#X connect 16 0 4 0;
#X connect 16 0 6 0;
#X connect 16 0 8 0;
#X connect 16 0 9 0;
#X connect 16 0 10 0;
#X connect 16 0 11 0;
#X connect 16 0 3 0;
#X connect 16 0 5 0;
#X connect 16 0 7 0;
#X connect 16 0 12 0;
#X connect 16 0 13 0;
#X connect 16 0 14 0;
#X connect 16 0 15 0;
#X coords 0 -1 1 1 414 380 1 100 100;
