#N canvas 720 22 528 317 10;
#X obj 9 -360 cnv 15 176 72 empty empty empty 20 12 0 14 -233017 -66577
0;
#X obj 11 -326 loadbang;
#N canvas 760 492 450 300 print_input 0;
#X obj 139 24 inlet;
#X obj 147 97 outlet;
#X obj 201 65 print gansynth input;
#X connect 0 0 1 0;
#X connect 0 0 2 0;
#X restore 226 -253 pd print_input;
#X msg 11 -307 load attention_rnn;
#X obj 164 -224 pyext ai_duet melody_rnn @detach 1;
#X text 11 -358 1 - load a Melody RNN model when patch is opened,
f 28;
#X obj 217 -312 pack f f;
#X obj 269 -345 notein 1;
#X msg 316 -311 note \$1 \$2;
#X obj 167 -174 print melody_rnn output;
#X msg 424 -306 generate;
#X msg 424 -270 state;
#X obj 340 -122 noteout 1;
#X msg 424 -288 clear;
#X obj 341 -193 route list;
#X obj 341 -175 route note;
#X obj 341 -157 unpack f f;
#X connect 1 0 3 0;
#X connect 2 0 4 1;
#X connect 3 0 2 0;
#X connect 4 0 9 0;
#X connect 4 0 14 0;
#X connect 6 0 8 0;
#X connect 7 0 6 0;
#X connect 7 0 12 0;
#X connect 7 1 6 1;
#X connect 7 1 12 1;
#X connect 8 0 2 0;
#X connect 10 0 2 0;
#X connect 11 0 2 0;
#X connect 13 0 2 0;
#X connect 14 0 15 0;
#X connect 15 0 16 0;
#X connect 16 0 12 0;
#X connect 16 1 12 1;
#X coords 0 317 1 316 0 0 0;
